<svg xmlns="http://www.w3.org/2000/svg" width="541" height="376" viewBox="0 0 541 376">
  <g fill="none" fill-rule="evenodd">
    <circle cx="103" cy="50" r="31" fill="#C3BAAC"/>
    <path fill="#F2F2F2" d="M253 165.644C253 238.545 209.572 264 156 264s-97-25.455-97-98.356C59 92.742 156 0 156 0s97 92.742 97 165.644z"/>
    <path fill="#3F3D56" d="M152.831 253.24l.99-61.107L195 116.536l-41.024 66.011.445-27.476 28.38-54.694-28.263 47.423.8-49.417L185.73 54.84l-30.265 35.773.5-90.613-3.141 119.955.258-4.949-30.899-47.459 30.403 56.959-2.878 55.19-.086-1.465L114 128.287l35.513 55.119-.36 6.902-.065.104.03.566L141.814 331h9.759l1.17-72.324 35.426-54.984z"/>
    <path fill="#F2F2F2" d="M541 195.527C541 255.174 505.63 276 462 276s-79-20.826-79-80.473S462 60 462 60s79 75.88 79 135.527z"/>
    <path fill="#3F3D56" d="M458.64 267.335l.806-50.03L493 155.413l-33.427 54.045.362-22.495 23.126-44.78-23.03 38.827.652-40.46 24.763-35.65-24.66 29.289.407-74.188-2.56 98.21.21-4.05-25.176-38.857 24.773 46.634-2.346 45.186-.07-1.2L427 165.033l28.936 45.127-.293 5.651-.053.085.024.464L449.663 331h7.952l.954-59.214 28.865-45.017z"/>
    <ellipse cx="267.5" cy="328.5" fill="#3F3D56" rx="267.5" ry="13.5"/>
    <ellipse cx="431" cy="351.5" fill="#3F3D56" rx="46" ry="2.5"/>
    <ellipse cx="265" cy="373.5" fill="#3F3D56" rx="46" ry="2.5"/>
    <ellipse cx="138.5" cy="354.5" fill="#3F3D56" rx="104.5" ry="5.5"/>
    <path fill="#2F2E41" d="M52.291 303.703l11.582.137-.244 20.78-11.582-.137z"/>
    <ellipse cx="61.701" cy="324.355" fill="#2F2E41" rx="3.625" ry="9.652" transform="rotate(-89.325 61.701 324.355)"/>
    <path fill="#EDECE8" d="M10.503 237.747C7.6 223.829 17.559 209.92 32.747 206.68c15.188-3.24 29.853 5.414 32.755 19.332 2.903 13.917-7.196 18.917-22.383 22.157-15.188 3.24-29.713 3.495-32.616-10.422z"/>
    <path fill="#B0A89C" d="M105 295.234C105 321.744 89.107 331 69.5 331a58.411 58.411 0 0 1-4.058-.137C47.748 329.62 34 319.889 34 295.234c0-25.515 32.883-57.71 35.353-60.092l.004-.005.143-.137s35.5 33.724 35.5 60.234z"/>
    <path fill="#3F3D56" d="M68.382 326.959l13.087-17.992-13.12 19.967-.035 2.066a59.33 59.33 0 0 1-2.718-.122l1.41-26.527-.01-.206.023-.039.133-2.505L54 281.584l13.194 18.138.03.532 1.066-20.042-11.26-20.684 11.398 17.166 1.11-41.552.004-.142v.137l-.186 32.767 11.21-12.99-11.255 15.813-.297 17.944 10.467-17.222-10.51 19.863-.166 9.976L84 277.318l-15.252 27.451-.366 22.19z"/>
    <path fill="#2F2E41" d="M336.031 307.013l11.072-3.408 6.096 19.865-11.071 3.407zM358.174 300.2l11.071-3.407 6.096 19.865-11.071 3.407z"/>
    <ellipse cx="351.425" cy="324.269" fill="#2F2E41" rx="9.653" ry="3.624" transform="rotate(-17.083 351.425 324.269)"/>
    <ellipse cx="373.426" cy="316.992" fill="#2F2E41" rx="9.653" ry="3.624" transform="rotate(-17.083 373.426 316.992)"/>
    <path fill="#EDECE8" d="M298.098 250.427c-7.032-12.333-1.688-28.62 11.934-36.375 13.622-7.756 30.365-4.045 37.396 8.289 7.03 12.334-1.16 20.195-14.782 27.95-13.623 7.757-27.517 12.47-34.548.136z"/>
    <path fill="#B0A89C" d="M276 290.215c0 24.3-14.55 32.785-32.5 32.785a53.43 53.43 0 0 1-3.715-.126c-16.2-1.138-28.785-10.06-28.785-32.66 0-23.388 30.104-52.9 32.365-55.084l.004-.004.131-.126s32.5 30.914 32.5 55.215z"/>
    <path fill="#3F3D56" d="M241.944 319.296l11.778-16.493-11.808 18.304-.031 1.893a52.454 52.454 0 0 1-2.447-.112l1.27-24.316-.01-.189.021-.035.12-2.297L229 277.702l11.874 16.627.028.487.96-18.372-10.135-18.96 10.258 15.735.999-38.09.004-.129v.126l-.167 30.036 10.089-11.908-10.13 14.495-.267 16.45 9.42-15.787-9.46 18.207-.149 9.145L256 273.791l-13.727 25.164-.33 20.34z"/>
    <path fill="#B0A89C" d="M403 300.234c0 26.51-15.893 35.766-35.5 35.766a58.411 58.411 0 0 1-4.058-.137C345.748 334.62 332 324.889 332 300.234c0-25.515 32.883-57.71 35.353-60.092l.004-.005.143-.137s35.5 33.724 35.5 60.234z"/>
    <path fill="#3F3D56" d="M366.382 331.959l13.087-17.992-13.12 19.967-.035 2.066a59.33 59.33 0 0 1-2.718-.122l1.41-26.527-.01-.206.023-.039.133-2.505L352 286.584l13.194 18.138.03.532 1.066-20.042-11.26-20.684 11.398 17.166 1.11-41.552.004-.142v.137l-.186 32.767 11.21-12.99-11.255 15.813-.297 17.944 10.467-17.222-10.51 19.863-.166 9.976L382 282.318l-15.252 27.451-.366 22.19z"/>
  </g>
</svg>
