<svg xmlns="http://www.w3.org/2000/svg" width="581" height="429" viewBox="0 0 581 429">
  <g fill="none" fill-rule="evenodd">
    <path fill="#F2F2F2" d="M342 70.13v214.265c0 5.304-4.312 9.605-9.632 9.605H22.79a6.8 6.8 0 0 1-4.801-1.983A6.762 6.762 0 0 1 16 287.229V96.592C16 72.517 35.57 53 59.712 53h265.112a17.2 17.2 0 0 1 12.145 5.017A17.105 17.105 0 0 1 342 70.129z"/>
    <path fill="#2F2E41" d="M227 244.427A111.956 111.956 0 0 1 215.508 294H22.788c-1.8 0-3.527-.716-4.8-1.99A6.796 6.796 0 0 1 16 287.206v-96.454c24.527-45.18 76.562-67.944 126.357-55.277C192.152 148.142 227.01 193.01 227 244.427z"/>
    <path fill="#3F3D56" d="M342 226.611v57.769c0 5.313-4.32 9.62-9.65 9.62H21.754c-3.73 0-6.753-3.013-6.754-6.73v-.07c0-48.116 150.12-89.157 192.805-105.094 49.664-18.484 105.535.046 134.195 44.505z"/>
    <circle cx="291" cy="118" r="28" fill="#C3BAAC"/>
    <path fill="#B0A89C" d="M145 125.233C145 179.909 112.54 199 72.5 199S0 179.91 0 125.233C0 70.557 72.5 1 72.5 1S145 70.557 145 125.233z"/>
    <path fill="#3F3D56" d="M70.243 189.973l.745-45.599L102 87.961l-30.895 49.26.335-20.503 21.373-40.814-21.284 35.388.602-36.876 22.887-32.493-22.792 26.694L72.603 1l-2.367 89.513.195-3.693-23.27-35.415L70.059 93.91l-2.168 41.184-.065-1.093L41 96.73l26.744 41.132-.27 5.15-.05.078.023.423L61.946 248h7.35l.881-53.97L96.855 153z"/>
    <path fill="#B0A89C" d="M264 99.763C264 143.669 237.809 159 205.5 159S147 143.67 147 99.763C147 55.856 205.5 0 205.5 0S264 55.856 264 99.763z"/>
    <path fill="#3F3D56" d="M202.49 152.25l.599-36.738L228 70.062l-24.817 39.687.269-16.519 17.169-32.883-17.098 28.512.484-29.71 18.385-26.179-18.309 21.507L204.386 0l-1.9 72.118.156-2.975L183.95 40.61l18.392 34.244-1.742 33.18-.052-.88L179 77.127l21.483 33.138-.218 4.15-.039.062.018.341L195.825 199h5.904l.708-43.481 21.43-33.057z"/>
    <path fill="#B0A89C" d="M383 161.136C383 190.683 365.315 201 343.5 201S304 190.683 304 161.136C304 131.589 343.5 94 343.5 94s39.5 37.589 39.5 67.136z"/>
    <path fill="#3F3D56" d="M342.82 196.52l.403-24.738L360 141.177l-16.713 26.725.18-11.124 11.563-22.142-11.514 19.199.326-20.006 12.381-17.628-12.33 14.482.204-36.683-1.28 48.562.105-2.003-12.589-19.214 12.387 23.06-1.173 22.342-.035-.593L327 145.935l14.468 22.314-.147 2.794-.026.042.012.23L338.331 228h3.977l.476-29.279 14.433-22.26z"/>
    <path fill="#B0A89C" d="M93.16 215.698c-1.72 2.801-3.953 2.735-5.966 1.447-2.012-1.288-3.043-3.31-1.323-6.111 1.72-2.802 7.554-4.034 7.554-4.034s1.456 5.896-.265 8.698zM39.16 223.698c-1.72 2.801-3.953 2.735-5.966 1.447-2.012-1.287-3.043-3.31-1.323-6.111 1.72-2.802 7.554-4.034 7.554-4.034s1.456 5.896-.265 8.698zM230.962 210.485c.332 3.028-1.553 4.264-4.023 4.483-2.469.22-4.587-.66-4.92-3.689-.332-3.029 3.716-7.279 3.716-7.279s4.894 3.456 5.227 6.485zM169.16 169.698c-1.72 2.801-3.953 2.735-5.966 1.447-2.012-1.288-3.043-3.31-1.323-6.111 1.72-2.802 7.554-4.034 7.554-4.034s1.456 5.896-.265 8.698zM312.16 212.698c-1.72 2.801-3.953 2.735-5.966 1.447-2.012-1.287-3.043-3.31-1.323-6.111 1.72-2.802 7.554-4.034 7.554-4.034s1.456 5.896-.265 8.698z"/>
    <path fill="#F2F2F2" d="M559 259.964c0 90.554-41.107 161.991-91.729 163.963-66.015 2.572-152.293-63.265-91.728-163.963C422.213 182.368 416.61 96 467.27 96S559 169.409 559 259.964z"/>
    <ellipse cx="441" cy="420.5" fill="#3F3D56" rx="82" ry="8.5"/>
    <path fill="#B0A89C" d="M511.962 311.485c.332 3.028-1.553 4.264-4.023 4.483-2.469.22-4.587-.66-4.92-3.689-.332-3.029 3.716-7.279 3.716-7.279s4.894 3.456 5.227 6.485zM478.16 301.698c-1.72 2.801-3.953 2.735-5.966 1.447-2.012-1.287-3.043-3.31-1.323-6.111 1.72-2.802 7.554-4.034 7.554-4.034s1.456 5.896-.265 8.698z"/>
    <path fill="#FFB9B9" d="M476.745 377.05s3.96 16.863 10.13 20.498c6.17 3.634-15.059 10.526-15.059 10.526s-9.239 5.604-11.639 7.63c-2.4 2.027-12.685 6.363-10.99 3.143 1.696-3.22 4.674-9.344 9.377-14.431s10.886-14.195 5.5-21.288c-5.386-7.093 12.68-6.078 12.68-6.078z"/>
    <path fill="#C3BAAC" d="M455 172.752l-2.041-.725s-5.248-.726-10.06 5.368c-4.81 6.094-15.817 24.594-15.817 24.594L423 211.565l14.433.435 10.86-23.795L455 172.752z"/>
    <path fill="#000" d="M455 172.752l-2.041-.725s-5.248-.726-10.06 5.368c-4.81 6.094-15.817 24.594-15.817 24.594L423 211.565l14.433.435 10.86-23.795L455 172.752z" opacity=".1"/>
    <path fill="#2F2E41" d="M453.218 319s8.298 1.816 6.903 8.135c-1.396 6.32 8.665 14.527 9.62 15.907.954 1.38 2.35 1.96 1.468 4.067-.881 2.107 20.488 31.814 16.229 34.501-4.26 2.688-38.773 13.22-41.857 11.113-3.084-2.106-5.581-71.036-5.581-71.036L453.218 319z"/>
    <path fill="#000" d="M453.218 319s8.298 1.816 6.903 8.135c-1.396 6.32 8.665 14.527 9.62 15.907.954 1.38 2.35 1.96 1.468 4.067-.881 2.107 20.488 31.814 16.229 34.501-4.26 2.688-38.773 13.22-41.857 11.113-3.084-2.106-5.581-71.036-5.581-71.036L453.218 319z" opacity=".1"/>
    <path fill="#FFB9B9" d="M435 394.524s-5.103 16.215-1.677 22.26c3.426 6.046-18.11 1.712-18.11 1.712s-10.682.325-13.743.894c-3.062.569-13.996-.685-10.935-2.605 3.062-1.92 8.675-5.69 15.235-7.753 6.56-2.062 16.4-6.827 15.38-15.433-1.02-8.606 13.85.925 13.85.925z"/>
    <path fill="#2F2E41" d="M425.395 228.969a15.92 15.92 0 0 1 9.611-2.965c5.564.217 23.775 4.555 23.269 5.423-.5.764-1.055 1.489-1.662 2.17 0 0 1.156 5.278.65 5.784-.506.506 9.9 12.437 3.83 38.034-6.07 25.596-5.42 43.312-5.42 43.312s2.457 75.055-4.552 76.573c-7.01 1.519-34.614.506-35.915-2.458-1.3-2.965 3.975-95.012 3.975-95.012s.578-46.277 1.95-51.917c1.374-5.64 4.264-18.944 4.264-18.944z"/>
    <circle cx="457.5" cy="145.5" r="17.5" fill="#FFB9B9"/>
    <path fill="#FFB9B9" d="M454.362 157.518s11.061 10.557-2.598 18.727c-9.618 5.753 23.236-4.483 23.236-4.483s-6.83-16.991-5.79-20.896c1.039-3.904-14.848 6.652-14.848 6.652z"/>
    <path fill="#C3BAAC" d="M457.768 173.994s14.963-6.941 17.42-4.457c2.458 2.484 13.083 12.713 1.518 30.832s-13.806 31.708-15.757 33.243c-1.952 1.534-3.18-1.973-3.18-1.973s-5.639-5.187-9.325-5.187c-3.687 0-19.444 1.753-19.444 1.753l4.41-17.68s-2.17-13.955 5.203-20.896c7.373-6.941 15.469-18.339 15.469-18.339l4.175-.77-2.757 3.548s-.406 1.095 2.268-.074z"/>
    <path fill="#B0A89C" d="M496.742 292.272c-30.197-11.061-34.184-32.927-26.096-55.136 8.087-22.21 25.188-36.351 55.385-25.29C556.23 222.906 580 277.19 580 277.19s-53.06 26.141-83.258 15.08z"/>
    <path fill="#3F3D56" d="M476.15 237.334l25.265 9.651 25.165 28.538-21.202-27.024 11.36 4.34 18.422 20.06-15.416-18.912 20.432 7.804L553.653 281l-10.265-17.982L581 276.927l-49.413-19.443 2.019.855 24.45-5.66-28.325 4.018-22.516-9.54.622.185 26.202-7.246-28.337 6.419-2.816-1.193-.034-.043-.24-.073L445.488 221 444 225.054l29.903 11.422 17.468 23.03z"/>
    <path fill="#FFB9B9" d="M422.621 211.884s-6.42 8.632-2.164 11.869 13.2-2.302 13.2-2.302 20.629 14.314 20.34 5.898c-.289-8.416-15.075-14.242-15.075-14.242l-9.954.288 1.515-4.963L426.3 208l-3.679 3.884z"/>
    <path fill="#000" d="M422.621 211.884s-6.42 8.632-2.164 11.869 13.2-2.302 13.2-2.302 20.629 14.314 20.34 5.898c-.289-8.416-15.075-14.242-15.075-14.242l-9.954.288 1.515-4.963L426.3 208l-3.679 3.884z" opacity=".1"/>
    <path fill="#FFB9B9" d="M466 195.199s-40.588 31.508-43.188 20.447c-1.69-7.188-.39-24.888.727-36.4a35.787 35.787 0 0 1 10.488-22.097c2.435-2.39 4.694-3.89 5.829-2.772 3.178 3.129-7.439 15.645-7.439 15.645s-1.733 25.395 1.733 28.306c0 0 12.56-12.219 15.163-12.04 2.604.179 16.687 8.91 16.687 8.91z"/>
    <path fill="#2F2E41" d="M493.536 162.321c-3.34-5.06-6.099-13.2-9.075-20.369-.965-2.323-1.846-4.676-2.71-7.04-1.739-4.763-9.31-10.912-19.228-10.912C451.19 124 442 129.74 442 134.555c0 3.982 6.283 7.338 14.865 8.382-3.015 6.772-4.831 14.287-4.831 19.384 0 11.533 9.29 6.655 20.751 6.655 11.46 0 27.093 2.951 20.751-6.655z"/>
    <path fill="#C3BAAC" d="M475.391 175.838s7.266 18.055-9.082 22.162c0 0-3.197-4.32-8.428-5.027-5.231-.708-9.881-6.019-9.881-6.019s10.68-14.657 19.036-14.94c8.355-.283 8.355 3.824 8.355 3.824z"/>
  </g>
</svg>
