<svg xmlns="http://www.w3.org/2000/svg" width="494" height="298" viewBox="0 0 494 298">
  <g fill="none" fill-rule="evenodd" transform="translate(-46 -71)">
    <path fill="#F2F2F2" d="M381.92 240.796l4.241-.732c.407-.071.81-.158 1.217-.231-13.823-8.571-19.858-25.564-14.533-40.92 5.325-15.357 20.589-24.98 36.757-23.174l-5.557 13.21 13.167-11.485a34.795 34.795 0 0 1 19.92 17.804 34.735 34.735 0 0 1 1.438 26.575c-.22.626-.483 1.224-.734 1.83 3.717-1.866 7.283-4.038 10.19-6.819 5.888-5.635 9.113-13.411 12.718-22.992 7.141-18.985 14.017-38.245 20.618-57.547-15.04-8.13-21.936-25.972-16.267-42.089.354-1.004.764-1.97 1.198-2.92.109-.237.218-.473.332-.707.44-.91.907-1.802 1.418-2.657.084-.14.177-.272.263-.41.445-.722.914-1.422 1.408-2.101.184-.255.367-.51.557-.758.56-.731 1.14-1.442 1.75-2.121.205-.227.421-.44.631-.66.47-.496.952-.975 1.447-1.44.261-.245.52-.492.787-.728.069-.06.133-.126.202-.187l.01.014c12.652-11.013 31.371-11.433 44.505-.999l-7.232 17.19 13.018-11.347a34.547 34.547 0 0 1 1.286 40.95c.012.005.025.008.037.012-.142.209-.304.4-.45.605a35.68 35.68 0 0 1-.843 1.133c-.37.476-.754.936-1.146 1.39-.296.341-.588.687-.896 1.016-.45.481-.923.937-1.398 1.391-.278.265-.543.542-.829.797a35.078 35.078 0 0 1-2.322 1.9c-.28.21-.577.396-.863.597-.562.395-1.126.784-1.71 1.144-.361.223-.733.427-1.102.637a34.77 34.77 0 0 1-1.623.875 35.09 35.09 0 0 1-2.893 1.283c-.387.152-.773.306-1.166.444-.648.228-1.306.426-1.968.616-.334.096-.663.206-1 .291a34.8 34.8 0 0 1-3.012.634c-.19.03-.385.042-.577.07-.841.123-1.688.221-2.54.282-.367.026-.736.03-1.104.044-.69.026-1.38.04-2.074.025-.404-.008-.809-.03-1.214-.052a33.788 33.788 0 0 1-2.03-.176c-.4-.047-.798-.093-1.199-.153-.725-.11-1.45-.254-2.174-.411-.047-.01-.095-.017-.143-.027a2041.386 2041.386 0 0 1-8.513 24.377 34.809 34.809 0 0 1 50.44 4.153l-12.035 13.294 16.294-6.497a34.616 34.616 0 0 1 1.393 26.47 34.093 34.093 0 0 1-4.422 8.545c-8.238 11.64-22.755 17.074-36.622 13.71-13.867-3.362-24.272-14.842-26.25-28.96-.305.818-.601 1.645-.908 2.461-3.181 8.452-7.138 18.97-15.086 26.575-5.387 5.155-12.015 8.425-18.374 11.19-4.14 1.8-8.337 3.464-12.588 4.993a34.912 34.912 0 0 1-15.578 4.959 214.302 214.302 0 0 1-20.355 4.615l-4.275.736c-3.842.657-7.781 1.334-11.69 2.114.562.167 1.126.326 1.686.523 14.294 5.025 23.693 18.708 23.244 33.838l-26.8 8.217 24.251 3.847a34.817 34.817 0 0 1-26.171 21.14 34.848 34.848 0 0 1-31.856-10.853c.246.824.493 1.646.742 2.468.492 1.632.98 3.254 1.45 4.862 6.38 21.902 3.634 39.131-7.735 48.511l-6.17-7.46c11.066-9.13 7.633-27.945 4.604-38.349-.46-1.578-.942-3.172-1.425-4.775-4.156-13.792-8.868-29.426-2.766-43.791 9.197-21.652 35.702-26.186 57-29.829z"/>
    <path fill="#3F3D56" d="M373.803 368H186.197C173.386 368 163 357.61 163 344.795V258.81a9.195 9.195 0 0 1 2.868-6.672l99.412-94.27c8.254-7.826 21.186-7.826 29.44 0l94.784 89.882A24.034 24.034 0 0 1 397 265.19v79.604a23.21 23.21 0 0 1-6.794 16.408A23.192 23.192 0 0 1 373.803 368z"/>
    <path fill="#000" d="M164 260h232v93.959c0 7.755-6.27 14.041-14.004 14.041H178.004C170.27 368 164 361.714 164 353.959V260z" opacity=".1"/>
    <rect width="172" height="173" x="194" y="186" fill="#FFF" rx="26.181"/>
    <path fill="#000" d="M366 264v95H194v-95l86 41.775z" opacity=".1"/>
    <path fill="#3F3D56" d="M280 311.16l-110.562-53.71a4.466 4.466 0 0 0-4.336.24 4.514 4.514 0 0 0-2.102 3.819v92.412c0 3.734 1.476 7.315 4.103 9.955a13.971 13.971 0 0 0 9.904 4.124h205.986c3.715 0 7.278-1.483 9.904-4.124a14.115 14.115 0 0 0 4.103-9.955v-90.83a5.509 5.509 0 0 0-2.565-4.66 5.45 5.45 0 0 0-5.291-.293L280 311.161z"/>
    <path fill="#EDECE8" d="M209 202h48v7h-48zM205 227h143v4H205zM205 240h143v4H205zM205 253h143v4H205z"/>
    <path stroke="#3F3D56" d="M76 368h402"/>
    <path fill="#46455B" d="M46 308c0 28.742 17.89 52 40 52"/>
    <path fill="#EDECE8" d="M86 360c0-28.742 20.127-52 45-52M60 311c0 27.084 11.629 49 26 49"/>
    <path fill="#46455B" d="M86 360c0-37.586 23.258-68 52-68"/>
    <path fill="#A8A8A8" d="M78 360.146s5.912-.18 7.694-1.429c1.782-1.25 9.095-2.741 9.537-.737.442 2.003 8.885 9.965 2.21 10.018-6.675.053-15.51-1.024-17.288-2.09-1.779-1.067-2.153-5.762-2.153-5.762z"/>
    <path fill="#000" d="M97.562 367.288c-6.676.054-15.511-1.041-17.29-2.127-1.354-.826-1.894-3.793-2.075-5.161l-.197.008s.375 4.777 2.153 5.863c1.779 1.085 10.614 2.181 17.29 2.127 1.927-.015 2.592-.702 2.556-1.72-.268.615-1.003.999-2.437 1.01z" opacity=".2"/>
    <path fill="#A0616A" d="M396.339 150.125c-.293 2.597-2.281 4.69-3.018 7.197-1.11 3.776.808 7.827 3.432 10.767a23.973 23.973 0 0 0 16.668 7.884c.93.081 1.866-.02 2.756-.3a5.9 5.9 0 0 0 2.097-1.427c1.975-1.976 3.036-4.714 3.458-7.47.423-2.757.259-5.566.093-8.35.001-.575-.104-1.146-.31-1.683a4.318 4.318 0 0 0-1.087-1.333 25.35 25.35 0 0 0-4.67-3.379c-.76-.339-1.43-.85-1.956-1.491a4.807 4.807 0 0 1-.605-1.786l-.516-2.618a5.133 5.133 0 0 0-.758-2.123c-.91-1.225-2.654-1.391-4.183-1.45l-5.602-.22c-1.742-.068-4.038-.566-5.74-.225-1.588.319-1.06 1.777-.772 3.104a22.36 22.36 0 0 1 .713 4.903z"/>
    <path fill="#000" d="M396.339 150.125c-.293 2.597-2.281 4.69-3.018 7.197-1.11 3.776.808 7.827 3.432 10.767a23.973 23.973 0 0 0 16.668 7.884c.93.081 1.866-.02 2.756-.3a5.9 5.9 0 0 0 2.097-1.427c1.975-1.976 3.036-4.714 3.458-7.47.423-2.757.259-5.566.093-8.35.001-.575-.104-1.146-.31-1.683a4.318 4.318 0 0 0-1.087-1.333 25.35 25.35 0 0 0-4.67-3.379c-.76-.339-1.43-.85-1.956-1.491a4.807 4.807 0 0 1-.605-1.786l-.516-2.618a5.133 5.133 0 0 0-.758-2.123c-.91-1.225-2.654-1.391-4.183-1.45l-5.602-.22c-1.742-.068-4.038-.566-5.74-.225-1.588.319-1.06 1.777-.772 3.104a22.36 22.36 0 0 1 .713 4.903z" opacity=".1"/>
    <path fill="#605D82" d="M432.62 267.831l-2.42 25.95c-.63 6.806-1.274 13.64-2.513 20.358a98.01 98.01 0 0 1-1.523 6.902c-1.654 6.34-4.054 12.537-4.828 19.036-.024.187-.045.378-.065.57a16.23 16.23 0 0 1-.827 4.224c-.387.992-.982 1.896-1.402 2.877-.835 1.96-.945 4.128-1.047 6.252a27.973 27.973 0 0 0-9.488-3.172c-1.61-.235-3.402-.402-4.497-1.578-1.215-1.299-1.08-3.287-.876-5.033.64-5.42 1.277-10.836 1.914-16.25a41.51 41.51 0 0 1 1.21-6.902c.22-.753.485-1.494.754-2.235.37-1.02.745-2.04 1.027-3.089.405-1.693.688-3.412.847-5.144.656-5.451 1.446-10.89 2.139-16.338l.036-.287c1.04-8.257 1.83-16.553 1.602-24.87a93.898 93.898 0 0 0-.168-3.697c-.114-1.79-.28-2.738 1.235-3.858 1.674-1.235 3.878-2.1 5.793-2.909 1.03-.438 12.38-4.38 12.646-3.514.532 1.844.811 3.75.83 5.666a61.685 61.685 0 0 1-.378 7.041z"/>
    <path fill="#000" d="M427 314.308c-.414 2.331-.899 4.65-1.474 6.95-1.6 6.384-3.921 12.624-4.67 19.168-.023.189-.043.381-.063.574-4.894-7.118-9.017-14.775-13.793-21.97.359-1.026.721-2.054.993-3.109.392-1.705.666-3.436.82-5.18.634-5.49 1.399-10.967 2.069-16.452l.035-.289c.28 1.165.68 2.296 1.194 3.375 3.208 6.637 10.83 9.991 14.558 16.343.114.197.225.393.331.59z" opacity=".1"/>
    <path fill="#605D82" d="M387.019 255.305c.163 5.324 1.01 10.6 1.855 15.858l1.743 10.85c.955 5.937 1.948 11.996 4.74 17.314 2.089 3.979 5.098 7.373 7.82 10.943 6.692 8.774 11.72 18.714 18.065 27.745 1.844 2.626 4.48 5.465 7.628 4.916 2.066-.36 3.567-2.09 5.19-3.425 1.915-1.574 4.223-2.725 5.73-4.698 1.506-1.972 1.8-5.25-.24-6.654a10.728 10.728 0 0 0-2.336-.962c-3.164-1.211-5.212-4.32-6.515-7.465-1.303-3.144-2.092-6.525-3.828-9.45-3.772-6.353-11.485-9.708-14.732-16.348-1.819-3.72-1.992-8.006-2.13-12.149l-.355-10.56c-.039-1.155-.07-2.357.397-3.412 1.242-2.812 4.992-3.073 8.028-3.43a27.336 27.336 0 0 0 9.838-3.124c1.749-.95 3.457-2.162 4.393-3.927.853-1.61.971-3.498 1.071-5.32l1.052-19.14c.09-1.646.173-3.348-.404-4.892-1.448-3.876-6.311-5.143-10.421-4.958-7.649.345-14.71 3.656-21.921 5.892a55.443 55.443 0 0 1-5.434 1.427c-1.618.326-3.577.19-5.12.715-2.746.931-2.676 6.973-3.066 9.48a80.308 80.308 0 0 0-1.048 14.774z"/>
    <path fill="#535070" d="M427.58 344.63c.7.7.929 1.723 1.111 2.69a90.982 90.982 0 0 1 1.571 16.269c-.046.509.056 1.02.296 1.474.197.27.464.482.773.615 2.023.954 4.37-.376 6.055-1.838 3.125-2.71 5.768-6.347 5.946-10.455a24.035 24.035 0 0 1 .112-3.171c.274-1.547 1.186-2.895 1.99-4.248a35.68 35.68 0 0 0 3.29-7.301c.307-.958.511-2.163-.246-2.83a2.765 2.765 0 0 0-.9-.464l-9.137-3.359c-.792-.29-2.762 4.72-3.074 5.268-.765 1.34-1.526 2.1-3.06 2.41-1.566.315-3.431-.138-4.893.636-2.472 1.309-1.233 2.907.167 4.305zM414.008 347.563a2.768 2.768 0 0 0-.67-.875 2.965 2.965 0 0 0-1.349-.472c-1.673-.293-3.657-.486-4.812.796-1.083 1.203-.897 3.162-1.802 4.512-.286.427-.675.78-.923 1.232a4.77 4.77 0 0 0-.405 2.208c-.047 2.092-.094 4.188.046 6.276.118 1.75.404 3.582 1.465 4.953 1.702 2.2 4.773 2.516 7.498 2.659l2.208.116a4.185 4.185 0 0 0 1.81-.172 3.039 3.039 0 0 0 1.56-1.77c1.149-2.946-.671-6.12-1.792-9.076-1.288-3.4-1.057-7.173-2.834-10.387z"/>
    <path fill="#3F3D56" d="M395.666 135.81a1.839 1.839 0 0 1 .125-.86c.327-.576 1.18-.419 1.823-.257 2.587.651 5.312.062 7.976.214 2.663.152 5.664 1.482 6.2 4.093 1.932-1.37 3.599-3.08 4.917-5.047.739-1.105 1.383-2.37 1.283-3.696-.146-1.912-1.751-3.341-3.238-4.553l-4.43-3.614a6.679 6.679 0 0 0-1.985-1.26c-1.023-.35-2.14-.183-3.22-.182-3.226.002-6.666-1.465-9.535.009-1.198.615-2.1 1.67-2.97 2.698l-3.955 4.676a2.498 2.498 0 0 0-.632 1.071c-.112.571.181 1.134.284 1.707.186 1.045-.264 2.16.082 3.163.575 1.666 2.6 1.902 3.838 2.857.46.355 1.184 1.562 1.734 1.547.991-.027 1.677-1.797 1.703-2.566z"/>
    <circle cx="402" cy="137" r="13" fill="#A0616A"/>
    <path fill="#3F3D56" d="M405.614 164.617c-.886-2.515-3.314-4.172-6-4.093-.375.069-.762.02-1.107-.14a1.515 1.515 0 0 1-.455-.563 21.93 21.93 0 0 1-1.855-4.348c-.203-.667-.48-1.454-1.162-1.628a1.575 1.575 0 0 0-1.48.639c-.324.462-.678.902-1.059 1.319-1.6 1.418-4.437.125-6.135 1.427-.277.212-.506.484-.798.678a3.743 3.743 0 0 1-.934.397 90.069 90.069 0 0 0-9.629 3.739c1.13 6.744 2.287 13.607 4.935 19.92 1.26 3.004 2.689 5.946 3.698 9.042 2.236 6.86 2.335 14.2 2.36 21.41.017 4.933-.008 9.972-1.618 14.641a13.727 13.727 0 0 0-.91 3.216c-.096 1.113.23 2.34 1.14 2.999.527.342 1.13.551 1.756.612 2.79.405 5.603-.33 8.35-.961 7.364-1.691 14.874-2.658 22.37-3.623l12.56-1.617c.9-.06 1.78-.286 2.598-.666 2.298-1.247 2.516-4.675 1.09-6.853-.685-1.045-1.65-1.901-2.225-3.009-.575-1.107-.624-2.655.365-3.422 2.014-1.56 1.413-4.454 1.51-6.986.268-7.078.231-14.16-.11-21.243a41.933 41.933 0 0 1-.07-4.406c.223-2.488.686-4.95 1.385-7.351L438 158.849c-.997-1.561-2.906-2.552-4.714-3.002-1.809-.45-3.692-.583-5.473-1.13-3.648-1.12-6.897-3.965-10.707-3.7a1.958 1.958 0 0 0-.83.201c-.859.483-.723 1.71-.778 2.688-.121 2.163-1.726 3.97-3.498 5.238-1.772 1.268-3.796 2.192-5.424 3.637a2.393 2.393 0 0 0-.962 1.836z"/>
    <path fill="#A0616A" d="M354.94 178.489c-.865.522-1.785.961-2.746 1.312-.94.26-1.83.66-2.63 1.186a3.9 3.9 0 0 0-.916 1.05 4.385 4.385 0 0 0 .104 4.751c.965 1.448 2.701 2.293 4.532 2.206a10.672 10.672 0 0 0 3.427-.95l9.21-3.706c1.559-.628 3.243-1.363 3.98-2.785a.609.609 0 0 0 .09-.442.757.757 0 0 0-.38-.37 20.04 20.04 0 0 1-5.362-4.696c-.378-.476-.84-1.602-1.374-1.887-1.95-1.043-6.374 3.39-7.934 4.33zM450.617 175l3.338 3.736c.717.803 1.434 1.606 2.088 2.458a28.498 28.498 0 0 1 3.824 7.058c.725 1.865 1.328 3.853 1.074 5.834a14.046 14.046 0 0 1-.835 2.967 36.521 36.521 0 0 1-2.269 5.353 30.456 30.456 0 0 1-2.553 3.748 88.094 88.094 0 0 1-8.463 9.484c-1.141 1.107-1.62 2.897-2.117 4.393-.916 2.76-3.097 4.91-5.206 6.948a14.398 14.398 0 0 1-2.235 1.885 7.392 7.392 0 0 1-4.068 1.135 4.544 4.544 0 0 1-1.832-.372c-1.443-.671-2.177-2.306-2.327-3.864a8.072 8.072 0 0 1 .702-4.133c1.916-4.158 6.836-5.96 10.313-8.994 2.04-1.779 3.599-4.013 5.137-6.223a21.403 21.403 0 0 0 2.597-4.461c.777-2.03.475-4.434 1.153-6.498.287-.872.797-1.66 1.105-2.525.309-.865.386-1.892-.153-2.64a3.914 3.914 0 0 0-1.512-1.085c-2.221-1.105-4.71-2.526-5.135-4.931a5.203 5.203 0 0 1 .995-3.766 15.836 15.836 0 0 1 2.801-2.877c.972-.842 2.606-1.788 3.578-2.63z"/>
    <path fill="#A0616A" d="M352.713 183.355c-.564-1.181-1.268-2.387-2.404-2.974a4.28 4.28 0 0 0-3.495-.016 13.055 13.055 0 0 0-3.067 1.926l-2.75 2.105a6.874 6.874 0 0 0-1.632 1.564 6.767 6.767 0 0 0-.85 2.423 17.959 17.959 0 0 0-.432 5.991c.436 3.22 2.305 6.031 4.363 8.482 1.286 1.532 2.873 3.077 4.829 3.142.844.029 1.783-.317 2.134-1.115.122-.316.186-.653.19-.993.212-3.591-1.025-7.1-2.468-10.37a6.839 6.839 0 0 1-.796-2.787.787.787 0 0 1 .117-.467.749.749 0 0 1 .47-.238c1.975-.406 5.376 1.187 6.761-1.09.898-1.476-.332-4.244-.97-5.583z"/>
    <path fill="#3F3D56" d="M394.666 131.81a1.84 1.84 0 0 1 .125-.86c.327-.576 1.18-.419 1.823-.257 2.587.651 5.312.062 7.976.214 2.663.152 5.664 1.482 6.2 4.093 1.932-1.37 3.599-3.08 4.917-5.047.739-1.105 1.383-2.37 1.283-3.696-.146-1.912-1.751-3.341-3.238-4.553l-4.43-3.614a6.679 6.679 0 0 0-1.985-1.26c-1.023-.35-2.14-.183-3.22-.182-3.226.002-6.666-1.465-9.535.009-1.198.615-2.1 1.67-2.97 2.698l-3.955 4.676a2.498 2.498 0 0 0-.632 1.071c-.112.571.181 1.134.284 1.707.186 1.045-.264 2.16.082 3.163.575 1.666 2.6 1.902 3.838 2.857.46.355 1.184 1.562 1.734 1.547.991-.027 1.677-1.797 1.703-2.566zM368.52 166.337c-.492.34-.924.77-1.276 1.271-.447.723-.538 1.636-.922 2.4-.822 1.633-2.744 2.214-3.943 3.554a1.35 1.35 0 0 0-.379.696 1.62 1.62 0 0 0 .322 1l5.782 9.724c1.925.182 3.772-1.108 5.698-.937.72.064 1.455.33 2.145.102a6.092 6.092 0 0 0 1.376-.9c1.15-.777 2.68-.868 3.643-1.893.926-.984 1.044-2.524 1.033-3.92.015-1.212-.1-2.422-.344-3.605-.851-3.733-3.52-6.597-5.193-9.903-.814-1.61-1.257-2.552-2.981-1.447-1.733 1.111-3.33 2.583-4.96 3.858zM441.29 162.19a14.027 14.027 0 0 1 3.012 2.648c.913 1.181 1.43 2.626 2.306 3.834.85 1.17 2.006 2.078 2.97 3.156 1.46 1.635 2.45 3.63 3.422 5.597a83.524 83.524 0 0 1-7.746 8.788c-.31.367-.719.636-1.177.776a1.894 1.894 0 0 1-1.662-.68c-.432-.454-.737-1.014-1.15-1.486a5.914 5.914 0 0 0-3.661-1.777 25.051 25.051 0 0 0-4.148-.058 1.635 1.635 0 0 1-.886-.15 1.492 1.492 0 0 1-.484-.556c-1.62-2.769-1.1-6.246-.527-9.406l1.312-7.252c.19-1.385.558-2.74 1.093-4.031.497-1.066 1.609-2.875 2.976-2.556 1.378.322 3.19 2.316 4.35 3.153z"/>
  </g>
</svg>
