<svg xmlns="http://www.w3.org/2000/svg" width="540" height="386" viewBox="0 0 540 386">
  <g fill="none" fill-rule="evenodd">
    <path fill="#F2F2F2" d="M58 321.568C58 343.383 45.016 351 29 351s-29-7.617-29-29.432C0 299.752 29 272 29 272s29 27.752 29 49.568z"/>
    <path fill="#3F3D56" d="M27.506 347.742l.293-18.276L40 306.856l-12.155 19.742.131-8.217 8.41-16.359-8.375 14.184.237-14.78 9.005-13.024-8.967 10.7.147-27.102-.93 35.877.076-1.48-9.154-14.194 9.007 17.036-.853 16.507-.025-.438L16 310.37l10.522 16.485-.107 2.065-.018.03.008.17L24.241 371h2.892l.347-21.632 10.496-16.445z"/>
    <path fill="#F2F2F2" d="M285.761 42.61c75.919 60.403 88.423 170.82 27.929 246.623C253.196 365.037 68.954 414.02 66.693 317.12 64.418 219.6 14.161 128.21 38.764 70.497c38.019-89.183 171.078-88.289 246.997-27.886z"/>
    <ellipse cx="84.5" cy="372.5" fill="#3F3D56" rx="80.5" ry="13.5"/>
    <ellipse cx="495.5" cy="367.5" fill="#3F3D56" rx="39.5" ry="6.5"/>
    <path fill="#3F3D56" d="M80 89h460v248H80z"/>
    <path fill="#3F3D56" d="M80 69h460v23H80z"/>
    <circle cx="91" cy="79" r="4" fill="#B0A89C"/>
    <circle cx="102" cy="79" r="4" fill="#B0A89C"/>
    <circle cx="114" cy="79" r="4" fill="#B0A89C"/>
    <path fill="#000" d="M80 89h460v3H80z" opacity=".1"/>
    <path fill="#B0A89C" d="M106 129h91v97h-91z" opacity=".3"/>
    <path fill="#B0A89C" d="M113 122h91v97h-91z"/>
    <path fill="#B0A89C" d="M439 127h70v74h-70z" opacity=".3"/>
    <path fill="#B0A89C" d="M443 122h70v74h-70z"/>
    <path fill="#B0A89C" d="M439 231h70v74h-70z" opacity=".3"/>
    <path fill="#B0A89C" d="M443 225h70v74h-70zM235 122h173v7H235zM235 141h173v7H235zM235 161h173v7H235zM235 181h173v7H235zM235 200h173v7H235zM235 220h173v7H235zM235 239h173v7H235zM235 259h173v7H235zM235 278h173v7H235zM235 298h173v7H235z"/>
    <circle cx="71" cy="163" r="12" fill="#A0616A"/>
    <path fill="#A0616A" d="M63.268 168s0 12.75-2.105 14.167C59.06 183.583 78 185 78 185v-16.292L63.268 168zM39 238.828S52.484 254 55.323 254C58.16 254 61 243.655 61 243.655L47.516 234 39 238.828zM107 169.305l2.093-14.91s1.395-20.591 5.581-15.62c4.186 4.97 1.396 16.33 1.396 16.33s2.093 16.33 0 18.46c-2.093 2.13-9.07-4.26-9.07-4.26z"/>
    <path fill="#2F2E41" d="M94.664 248.536L56.762 245s-4.914 23.338-3.51 32.531c1.404 9.194 2.106 35.36 2.106 35.36s1.404 47.384 3.51 50.212c2.105 2.83 9.124 2.122 11.23 3.536 2.105 1.415 5.615-2.828 5.615-3.536 0-.707-4.211-.707-2.106-4.95 2.106-4.243-5.615-16.266-3.51-21.923 2.106-5.658 5.616-13.437 3.51-16.266-2.105-2.829 1.404-38.896 1.404-38.896s17.547 25.459 17.547 36.774c0 11.316-1.403 37.482-2.105 40.311-.702 2.829-1.404 3.536 0 5.658 1.403 2.121 2.807 4.243 2.105 4.95-.702.707 12.634 0 12.634-4.243s-.701-4.243.702-7.78c1.404-3.535 2.106-45.968 2.106-45.968l-13.336-62.234z"/>
    <path fill="#575A89" d="M60.463 178l-2.122 4.229S35.707 189.276 35 204.077l19.098 31.715s1.414 2.114.707 3.524c-.707 1.41-1.415.704-.707 2.819.707 2.114.707 1.41.707 2.819 0 1.41-2.122.705 0 1.41 2.122.704-.707 0 7.073 2.114S93 249.888 93 249.888l-4.244-40.878L93 200.553l-5.659-16.915s-3.536-.705-5.658.705c-2.122 1.41-4.951-1.41-4.951-1.41S73.195 178 60.463 178z"/>
    <path fill="#575A89" d="M84 183.706l3.507-.709s14.03-4.25 14.73-7.793c.702-3.542 4.21-7.793 4.21-7.793s11.223-2.834 10.521 6.376c-.701 9.21-3.507 12.044-4.91 13.46C110.655 188.666 95.223 200 92.418 200 89.611 200 84 183.706 84 183.706zM36.765 201l-1.393 2.807-.697 25.263s-4.18 2.807-2.09 4.21c2.09 1.404 6.966 7.72 8.36 7.72 1.392 0 9.055-3.509 9.055-4.912 0-1.404-1.393-14.035-1.393-14.035L36.765 201z"/>
    <path fill="#2F2E41" d="M62.548 363s0 7.083-.724 8.5c-.724 1.416-2.171 8.498 2.171 8.498a17.895 17.895 0 0 0 7.238-1.416s0-4.25 2.171-4.958c2.171-.708 7.238-6.374 5.066-7.791-2.17-1.416-6.513-2.833-6.513-2.833h-9.409zM92.877 367.207s-4.223 9.817 0 10.518c4.223.701 9.853 0 10.557-1.402.704-1.403 2.111-2.805 3.519-2.104 1.407.701 13.372-7.713 9.15-9.115a12.228 12.228 0 0 0-7.743 0L104.138 363l-11.261 4.207zM72.358 176.344c.203-.013.4-.066.58-.158.291-.231.484-.561.542-.925l1.456-5.098c.553-1.935 1.441-4.195 3.433-4.604a3.27 3.27 0 0 0 1.202-.316c.442-.41.68-.991.653-1.59l.625-6.59c.168-1.781.328-3.634-.3-5.312-.929-2.475-3.473-4.105-6.103-4.573-2.63-.469-5.338.055-7.898.813-3.883 1.149-7.904 3.127-9.59 6.767-.977 2.108-1.038 4.511-.907 6.826.134 2.383.47 4.812 1.579 6.933a20.772 20.772 0 0 0 2.138 3.104c1.204 1.54 2.681 4.55 4.674 5.124 2.247.648 5.64-.109 7.916-.401zM464 326c0 21.004 13.418 38 30 38"/>
    <path fill="#B0A89C" d="M494 364c0-21.557 14.76-39 33-39M475 328c0 20.451 8.498 37 19 37"/>
    <path fill="#2F2E41" d="M494 365c0-27.637 16.996-50 38-50"/>
    <path fill="#A8A8A8" d="M487 364.288s4.3-.13 5.596-1.04c1.296-.908 6.614-1.993 6.936-.536.321 1.458 6.462 7.248 1.607 7.287-4.855.038-11.28-.745-12.573-1.52-1.294-.776-1.566-4.191-1.566-4.191z"/>
    <path fill="#000" d="M501.227 370.466c-4.855.04-11.281-.781-12.575-1.595-.985-.62-1.377-2.845-1.508-3.871l-.144.006s.272 3.583 1.566 4.397c1.293.814 7.72 1.636 12.574 1.596 1.401-.012 1.886-.527 1.859-1.29-.195.46-.73.749-1.772.757z" opacity=".2"/>
  </g>
</svg>
