<svg xmlns="http://www.w3.org/2000/svg" width="109" height="16">
  <g fill="none" fill-rule="evenodd">
    <path fill="#FFF" d="M2.008 15.787L0 .213h4.715l.547 9.582h.122L9.49.213h3.712l.942 9.612h.122L17.977.213h4.715l-7.179 15.574h-4.045l-1.187-8.7h-.121l-4.107 8.7H2.008zm36.045-7.513c-.284 1.693-.846 3.113-1.688 4.258-.842 1.146-1.863 2.01-3.065 2.593a8.716 8.716 0 0 1-3.855.875c-1.46 0-2.728-.317-3.802-.95-1.075-.634-1.858-1.562-2.35-2.784-.492-1.222-.59-2.715-.297-4.479.274-1.693.832-3.118 1.673-4.274.842-1.156 1.868-2.03 3.08-2.623A8.721 8.721 0 0 1 31.635 0c1.45 0 2.711.32 3.783.958 1.072.639 1.853 1.574 2.342 2.806.49 1.232.587 2.735.293 4.51zm-4.258-.487c.213-1.338.128-2.357-.255-3.057-.383-.7-1.069-1.05-2.057-1.05-1.126 0-2.055.405-2.787 1.214-.733.808-1.213 1.935-1.441 3.38-.244 1.353-.157 2.366.258 3.038.416.672 1.11 1.007 2.084 1.007 1.11 0 2.027-.394 2.749-1.182.722-.788 1.205-1.905 1.449-3.35zM55.787.213l-2.585 15.574h-3.529l-4.259-8.182h-.09l-1.37 8.182h-4.228L42.312.213h3.59l4.197 8.152h.122L51.559.213h4.228zm6.48 15.574h-6.084L58.768.213h5.84c1.602 0 2.94.322 4.016.966 1.074.644 1.837 1.564 2.289 2.76.45 1.197.54 2.621.266 4.274-.264 1.592-.798 2.953-1.601 4.084a7.923 7.923 0 0 1-3.072 2.593c-1.245.598-2.658.897-4.24.897zm-1.263-3.59h1.536c.77 0 1.459-.135 2.065-.406.605-.271 1.112-.728 1.52-1.369.409-.641.704-1.52.886-2.635.173-1.054.168-1.87-.015-2.445-.182-.575-.53-.976-1.042-1.201-.512-.226-1.173-.339-1.984-.339h-1.567l-1.4 8.396zm11.848 3.59L75.437.213h11.225l-.578 3.407h-6.997l-.425 2.677h6.418l-.578 3.406h-6.418l-.426 2.677h6.966l-.578 3.407H72.852zm14.296 0L89.734.213h6.631c1.916 0 3.33.449 4.243 1.346.913.897 1.232 2.152.959 3.764-.168 1.004-.554 1.873-1.16 2.609a6.665 6.665 0 0 1-2.186 1.741l2.16 6.114h-4.594l-1.855-5.506h-1.635l-.92 5.506h-4.229zM92.791 7.3h2.023c.623 0 1.138-.17 1.543-.51.406-.339.662-.798.768-1.376.092-.562-.012-1.007-.311-1.334-.3-.327-.753-.49-1.362-.49h-2.038l-.623 3.71z"/>
    <circle cx="106.5" cy="13.5" r="2.5" fill="#FA983A"/>
  </g>
</svg>
