<svg xmlns="http://www.w3.org/2000/svg" width="109" height="19">
  <g fill="none" fill-rule="evenodd">
    <path fill="#494949" d="M3.55 18.744L0 4.686h5.103l1.627 8.566h.111l1.812-8.566h4.956l1.886 8.493h.11l1.554-8.493h5.103l-3.55 14.058h-5.51l-1.997-7.542h-.148L9.06 18.744H3.55zM30.658 19c-1.54 0-2.86-.304-3.957-.91a6.225 6.225 0 0 1-2.524-2.545c-.585-1.09-.878-2.354-.878-3.794s.293-2.704.878-3.793a6.225 6.225 0 0 1 2.524-2.544c1.097-.608 2.416-.911 3.957-.911 1.54 0 2.86.303 3.957.91a6.225 6.225 0 0 1 2.524 2.545c.585 1.089.878 2.353.878 3.793s-.293 2.705-.878 3.794a6.225 6.225 0 0 1-2.524 2.544c-1.097.607-2.416.911-3.957.911zm.037-3.734c.647 0 1.16-.316 1.54-.947.378-.632.568-1.5.568-2.604 0-1.105-.19-1.972-.569-2.604-.379-.631-.892-.947-1.54-.947-.683 0-1.218.316-1.603.947-.385.632-.578 1.5-.578 2.604s.193 1.972.578 2.604c.385.631.92.947 1.604.947zm14.756-4.43v7.908h-5.103V4.686h4.845v2.672h.148a3.98 3.98 0 0 1 1.631-2.095c.78-.507 1.69-.76 2.732-.76 1.005 0 1.878.227 2.621.682a4.652 4.652 0 0 1 1.729 1.871c.41.794.612 1.7.606 2.719v8.969h-5.104v-7.908c.006-.695-.17-1.241-.531-1.638-.36-.397-.862-.595-1.503-.595-.634 0-1.137.198-1.507.595-.37.397-.557.943-.564 1.638zm26.258 7.908h-5.066v-2.307h-.111c-.296.714-.78 1.308-1.452 1.78-.672.473-1.507.71-2.505.71-1.011 0-1.94-.263-2.788-.787-.847-.525-1.525-1.321-2.034-2.389-.508-1.068-.762-2.413-.762-4.036 0-1.696.266-3.075.8-4.137.533-1.062 1.223-1.84 2.07-2.334a5.233 5.233 0 0 1 2.677-.741c1.054 0 1.913.26 2.58.782.665.522 1.136 1.14 1.414 1.854h.074V0h5.103v18.744zm-4.992-7.03c0-1.043-.2-1.859-.601-2.447-.401-.59-.953-.884-1.655-.884-.703 0-1.248.295-1.637.884-.388.588-.582 1.404-.582 2.448 0 1.043.194 1.86.582 2.448.389.589.934.883 1.637.883.702 0 1.254-.299 1.655-.897.4-.598.6-1.41.6-2.434zM81.362 19c-2.274 0-4.063-.64-5.367-1.917-1.303-1.279-1.955-3.056-1.955-5.332 0-1.452.296-2.72.888-3.807a6.31 6.31 0 0 1 2.505-2.535c1.079-.604 2.351-.906 3.818-.906 1.43 0 2.674.29 3.73.87a6.058 6.058 0 0 1 2.46 2.484c.582 1.077.873 2.363.873 3.858v1.171H79.07v.22c0 .677.211 1.237.634 1.68.422.442 1.012.663 1.77.663.524 0 .982-.108 1.373-.325.391-.217.66-.523.809-.92h4.66c-.241 1.465-.967 2.63-2.178 3.496-1.211.867-2.803 1.3-4.775 1.3zm-2.293-8.896h4.549c-.012-.604-.233-1.097-.661-1.478-.428-.381-.96-.572-1.595-.572-.622 0-1.157.19-1.604.567-.447.379-.676.873-.689 1.483zm11.577 8.64V4.686H95.6v2.672h.148c.265-.988.678-1.711 1.239-2.169.56-.457 1.22-.686 1.978-.686a4.273 4.273 0 0 1 2.034.512l-1.48 4.137a5.623 5.623 0 0 0-.656-.256 2.438 2.438 0 0 0-.748-.11c-.635 0-1.187.24-1.655.719-.469.479-.706 1.118-.712 1.917v7.322h-5.103z"/>
    <path fill="#B0A89C" d="M106.482 19a2.4 2.4 0 0 1-1.755-.733 2.394 2.394 0 0 1-.727-1.785 2.348 2.348 0 0 1 .727-1.754 2.408 2.408 0 0 1 1.755-.728c.668 0 1.253.243 1.756.728.502.486.756 1.07.762 1.754a2.426 2.426 0 0 1-.762 1.785c-.503.489-1.088.733-1.756.733z"/>
  </g>
</svg>
