<svg xmlns="http://www.w3.org/2000/svg" width="459" height="241" viewBox="0 0 459 241">
  <defs>
    <linearGradient id="a" x1="49.992%" x2="49.992%" y1="100%" y2="-.078%">
      <stop offset="0%" stop-color="gray" stop-opacity=".25"/>
      <stop offset="54%" stop-color="gray" stop-opacity=".12"/>
      <stop offset="100%" stop-color="gray" stop-opacity=".1"/>
    </linearGradient>
  </defs>
  <g fill="none" fill-rule="evenodd">
    <path fill="#EDECE8" d="M423.82 190.604a432.357 432.357 0 0 1-1.53 3.218c-.793 1.645-1.576 3.257-2.349 4.838-.343.7-.687 1.387-1.022 2.075a641.01 641.01 0 0 1-10.337 19.961c-5.557 10.26-16.34 16.714-28.128 16.835l-66.848.717h-.705l-5.73.061-4.903.052-15.031.161h-.608l-7.653.083h-.233l-47.166.505-42.102.435-4.897.052-30.416.326h-.035l-19.726.209h-.211l-62.374.665-18.66.2a39.303 39.303 0 0 1-11.756-1.661A38.149 38.149 0 0 1 24.17 228.57c-8.014-8.713-13.854-18.879-17.778-29.91a101.343 101.343 0 0 1-1.587-4.838C-8.776 148.518 7.78 90.068 37.578 50.953a150.656 150.656 0 0 1 3.809-4.785l.03-.035c9.165-11.1 19.44-20.375 30.385-26.97 19.396-11.705 40.885-15.002 62.022-5.176 17.883 8.317 34.58 12.228 50.767 13.29 1.636.104 3.27.182 4.898.23 37.129 1.153 71.926-12.05 112.788-20.571 1.627-.34 3.258-.674 4.902-.992 29.15-5.724 61.488-8.743 99.944-2.397a84.283 84.283 0 0 1 11.796 2.784c1.695.54 3.33 1.12 4.901 1.74 18.356 7.37 28.366 20.984 32.62 38.045.403 1.583.75 3.194 1.045 4.833 7.542 41.037-14.547 99.248-33.665 139.655z"/>
    <g fill="#B0A89C" opacity=".1">
      <path d="M71.418 19.48v220.96l-18.65.2a39.385 39.385 0 0 1-11.75-1.656V46.362h.03c9.16-11.078 19.43-20.322 30.37-26.882z"/>
      <path d="M456.93 51.166H37.21c1.249-1.63 2.518-3.22 3.807-4.77v-.034h414.867c.403 1.57.75 3.17 1.044 4.804z"/>
      <path d="M423.26 8.428v185.138h-1.529c-.793 1.64-1.576 3.246-2.348 4.822-.344.698-.687 1.383-1.022 2.068V6.676a70.167 70.167 0 0 1 4.899 1.752zM306.677 6.29v231.64l-4.9.052V7.28c1.626-.338 3.257-.672 4.9-.989zM189.045 27.783v211.405l-4.894.052V27.553c1.634.104 3.269.165 4.894.23z"/>
      <path d="M421.731 193.57c-.793 1.64-1.576 3.247-2.348 4.822H6.04a100.817 100.817 0 0 1-1.586-4.821H421.73z"/>
    </g>
    <path fill="#3F3D56" d="M93.219 115h8.106v25h-8.106zM318.159 114h8.106v26h-8.106z"/>
    <path fill="#65617D" d="M379.967 231.34v5.63l-66.9.605-.714.013-25.427.23-.608.008-7.728.065h-.229l-47.11.429-77.333.706h-.066l-19.663.182-.211.004-87.369.788v-6.495l20.543-12.124 41.219-.337.88-.005.291-.004.88-.013 19.79-.16.886-.004.282-.005.88-.004 6.346-.052.168-.004 15.655-.13h.127l122.158-1.014 2.99-.021h.3l2.28-.022 16.58-.134.881-.013.815-.009h.423l5.156-.039 1.022-.013 1.37-.008 4.293-.04 6.813-.056.88-.008 1.533-.009h.286l32.9-.277z"/>
    <path fill="#000" d="M379.967 231.34v5.63l-66.9.605-.714.013-25.427.23-.608.008-7.728.065h-.229l-47.11.429-77.333.706h-.066l-19.663.182-.211.004-87.369.788v-6.495l20.543-12.124 41.219-.337.88-.005.291-.004.88-.013 19.79-.16.886-.004.282-.005.88-.004 6.346-.052.168-.004 15.655-.13h.127l122.158-1.014 2.99-.021h.3l2.28-.022 16.58-.134.881-.013.815-.009h.423l5.156-.039 1.022-.013 1.37-.008 4.293-.04 6.813-.056.88-.008 1.533-.009h.286l32.9-.277z" opacity=".2"/>
    <path fill="#3F3D56" d="M130.709 210v10.929a2.733 2.733 0 0 1-1.58 2.472 2.73 2.73 0 0 1-1.127.268l-15.743.33c-.42.01-.838-.077-1.218-.254a2.73 2.73 0 0 1-1.61-2.486V210h21.278z"/>
    <path fill="#000" d="M130.709 210v10.929a2.733 2.733 0 0 1-1.58 2.472 2.73 2.73 0 0 1-1.127.268l-15.743.33c-.42.01-.838-.077-1.218-.254a2.73 2.73 0 0 1-1.61-2.486V210h21.278z" opacity=".1"/>
    <path fill="#3F3D56" d="M131.722 210v10.929a2.733 2.733 0 0 1-1.579 2.472 2.73 2.73 0 0 1-1.128.268l-15.743.33c-.42.01-.837-.077-1.218-.254a2.73 2.73 0 0 1-1.61-2.486V210h21.278zM299.921 210h21.278v14h-21.278z"/>
    <path fill="#000" d="M299.921 210h21.278v14h-21.278z" opacity=".1"/>
    <path fill="#3F3D56" d="M298.907 210h21.278v14h-21.278z"/>
    <path fill="#000" d="M101.325 116v2l-8.106-.171V116z" opacity=".1"/>
    <path fill="#65617D" d="M157.035 45.485l-10.095 70.91c-.132.938-.964 1.629-1.932 1.604l-80.823-2.05-1.534-.038a1.918 1.918 0 0 1-1.4-.651 1.831 1.831 0 0 1-.44-1.455l11.333-74.231c.151-.953 1.023-1.635 2.007-1.57l81.115 5.37c.529.03 1.021.276 1.357.676.336.401.485.921.412 1.435z"/>
    <path fill="#B0A89C" d="M77.414 43L68.9 108.686 142.888 111l9.099-63.373z"/>
    <rect width="90.179" height="75" x="169.212" y="42" fill="#65617D" rx="5.33"/>
    <path fill="#B0A89C" d="M173.265 47h82.073v63h-82.073z"/>
    <path fill="#000" d="M326.265 114v1.813l-8.106.187v-2z" opacity=".1"/>
    <path fill="#65617D" d="M364.765 112.91c.024.361-.103.717-.352.985-.25.267-.6.423-.968.432L281.03 116a1.347 1.347 0 0 1-1.378-1.206l-7.084-72.299a1.315 1.315 0 0 1 .325-.998c.243-.276.59-.441.96-.458l81.79-3.994.88-.043a1.344 1.344 0 0 1 1.418 1.21l6.823 74.697z"/>
    <path fill="#B0A89C" d="M276.616 44.635L351.363 41l6.312 66.256L283.52 109z"/>
    <path fill="#000" d="M364.765 112.57c.024.365-.103.724-.352.994a1.36 1.36 0 0 1-.968.436l-7.796-77.955.88-.043a1.347 1.347 0 0 1 1.417 1.22l6.82 75.348zM73.967 38.005L64.135 116l-1.512-.039a1.878 1.878 0 0 1-1.38-.651 1.852 1.852 0 0 1-.432-1.456L71.976 39.58a1.87 1.87 0 0 1 1.99-1.575zM93.219 133h8.106v7h-8.106zM131.722 210v2.393l-21.278.607v-3z" opacity=".1"/>
    <path fill="#65617D" d="M168.199 135.722v73.332a1.755 1.755 0 0 1-1.702 1.722L81.814 213h-.022a1.756 1.756 0 0 1-1.746-1.722v-75.556A1.756 1.756 0 0 1 81.792 134h84.661a1.756 1.756 0 0 1 1.746 1.722z"/>
    <path fill="#000" d="M82.073 134v79h-.025c-1.1-.012-1.988-.776-2.002-1.722v-75.556c.014-.946.902-1.71 2.002-1.722h.025z" opacity=".1"/>
    <path fill="#D4DFEC" d="M86.126 139h78.02v64.266L86.126 205z"/>
    <path fill="#000" d="M318.159 133h8.106v8h-8.106zM320.185 210v3l-21.278-.59V210z" opacity=".1"/>
    <path fill="#65617D" d="M347.543 135.722v75.556a1.756 1.756 0 0 1-1.767 1.722l-84.684-2.224a1.755 1.755 0 0 1-1.701-1.722v-73.332a1.756 1.756 0 0 1 1.745-1.722h84.644c.966.002 1.751.77 1.763 1.722z"/>
    <path fill="#000" d="M347.543 135.722v75.556c-.014.954-.917 1.722-2.026 1.722v-79c1.109 0 2.012.768 2.026 1.722z" opacity=".1"/>
    <path fill="#D4DFEC" d="M341.464 139h-78.02v64.266l78.02 1.734z"/>
    <path fill="#65617D" d="M257.364 135.722v73.332a1.755 1.755 0 0 1-1.7 1.722L170.978 213a1.756 1.756 0 0 1-1.767-1.722v-75.556a1.756 1.756 0 0 1 1.745-1.722h84.662a1.756 1.756 0 0 1 1.745 1.722z"/>
    <path fill="#D4DFEC" d="M175.291 139h78.02v64.266L175.291 205z"/>
    <path fill="#000" d="M379.967 232v5.85l-66.9.63-.714.014-25.427.238-.608.009-7.728.067h-.229l-47.11.446-77.333.734h-.066l-19.663.189-.211.004-87.369.819v-6.75l89.179-.599h.211l18.05-.126h.085l124.659-.841h.127l.075-.005h.207l2.11-.013h.642l32.803-.225 1.938-.009.432-.004z" opacity=".1"/>
    <ellipse cx="214.301" cy="118.5" fill="#FBBEBE" rx="22.798" ry="22.5"/>
    <path fill="url(#a)" d="M133.748 239.848c0-.048.027-.1.044-.152.44-1.56 1.224-4.197 1.81-6.305.075-.26.145-.517.211-.76.647-2.377 1.906-7.942 2.606-11.414.247-1.22.44-2.172.48-2.65.088-.735 1.413-3.876 2.915-7.486 1.052-2.538 2.2-5.31 3.042-7.647.55-1.389.982-2.82 1.29-4.28.066-.305.066-.62 0-.926a6.304 6.304 0 0 1-.212-1.52c-.101-2.694.713-6.952 1.973-8.738 1.54-2.172 2.641-10.28 2.641-10.28s2.28.326 2.641-1.533c.039-.2.053-.405.044-.609 0-.161-.014-.323-.04-.482-.39-2.711 6.481-5.596 10.347-6.218a8.771 8.771 0 0 1 1.32-.121c.94-.101 1.863-.311 2.752-.626.41-.124.851-.27 1.32-.434 1.62-.54 3.558-1.252 5.614-2.034 7.73-2.959 17.09-6.952 17.09-6.952.066-.308.14-.603.224-.895.938-3.715 3.61-6.768 7.198-8.224v-.87c0-1.498-.066-3.04-.132-4.579 0-.3-.026-.6-.044-.9v-.264-.226c0-.304-.03-.609-.048-.908l-.08-.061a7.168 7.168 0 0 1-1.716-1.825 6.596 6.596 0 0 1-.625-1.303c-.55-1.473-.678-3.116-1.048-4.671l-.08-.322a36.2 36.2 0 0 0-1.76-4.597c-.973-2.355-1.722-4.779-2.466-7.234-.452-1.486-.908-2.975-1.369-4.466l-.696-2.277a20.59 20.59 0 0 1-.365-1.303c-.05-.201-.087-.404-.114-.609a4.29 4.29 0 0 1 .105-2.003c.171-.444.365-.879.581-1.303a3.39 3.39 0 0 0 .256-.739c.031-.154.047-.312.048-.47a7.922 7.922 0 0 0-.229-1.69.03.03 0 0 1 0-.021 10.932 10.932 0 0 1-.18-1.42c-.155-2.353.375-4.7 1.527-6.766l.084-.156c.243-.42.513-.823.81-1.208.136-.182.277-.356.44-.53-.616.582-1.629.326-2.201-.3a1.57 1.57 0 0 1-.242-.326 1.647 1.647 0 0 1-.101-.195c-.022-.052-.04-.109-.058-.165-.308-1.065.23-2.199.934-3.063a8.119 8.119 0 0 1 2.527-2.043 7.595 7.595 0 0 1 1.338-.552 6.7 6.7 0 0 1 .718-.19l-1.634-.148-.66-.061c.672-2.633 2.98-4.544 5.723-4.74h.476c.231.003.462.022.69.056a1.927 1.927 0 0 1-1.166-1.881 6.4 6.4 0 0 0 4.046 1.33h.167a12.87 12.87 0 0 1-.15-1.421 14.233 14.233 0 0 1 0-1.938 3.747 3.747 0 0 0 2.985.982l-.915-1.26c.816.642 1.846.96 2.888.89l.211-.021c.177-.019.353-.052.524-.1h.04a4.384 4.384 0 0 1-.234-.326l-.026-.052a4.178 4.178 0 0 1-.44-.908 2.834 2.834 0 0 1-.106-.378 3.756 3.756 0 0 1 .198-2.368c1.422 1.173 2.98 2.776 4.843 1.564 1.862-1.212 1.924-3.437 4.842-3.211a4.486 4.486 0 0 1 3.703 2.659 2.999 2.999 0 0 1 3.376-.76 2.97 2.97 0 0 1 1.709 2.993c1.21-.3 2.513-.595 3.676-.143 1.162.452 1.91 1.916 1.25 2.894a.621.621 0 0 1-.062.087c-.541.69-1.739 1.068-1.611 1.937l.185.13.572.41a114.001 114.001 0 0 1 6.56 5.04c1.092.903 2.254 1.99 2.329 3.401.013.347-.023.693-.106 1.03-.07.339-.167.678-.242 1.017a8.368 8.368 0 0 0-.15 2.628c.031.257.07.509.12.765.673 3.359 3.393 6.13 3.662 9.559v.243c.016.367.006.734-.03 1.1-.203 2.085-1.18 4.088-1.973 6.082-.049.122-.097.243-.141.365-1.528 3.91-2.408 8.077-3.082 12.235a43.057 43.057 0 0 1-.88 4.384 11.553 11.553 0 0 1-2.241 4.532c-.43.5-.927.939-1.48 1.303-.37.235-.761.44-1.166.613v.026c.049.265.088.53.137.795.026.14.048.278.074.435a.06.06 0 0 0 0 .026c.37 2.055.793 4.066 1.237 5.978l.225.952c5.547 1.977 6.203 6.026 6.243 7.577.015.207.015.415 0 .621 0 0 8.364.218 11.666 2.607a9 9 0 0 0 1.986 1c1.331.496 2.69.915 4.072 1.255.709.183 1.448.361 2.201.535 1.32.3 2.72.59 4.072.869 3.606.717 7 1.303 8.722 1.738 4.107 1.025 13.502 9.915 13.502 9.915s1.1 8.968 2.201 10.275c1.1 1.308 3.082 5.905 3.082 5.905l7.281 12.778 3.082 5.375h1.981c.273 0 .81.382 1.413.912.524.46 1.105 1.034 1.616 1.556l.845.89.529.578s3.2.079 4.067 2.577c2.607-.074 5.807.095 8.048 1.086.306.133.6.29.88.47a3.775 3.775 0 0 1 1.819 2.458c.044.206.071.416.079.626v.739c-.159 3.289-2.329 6.026-4.323 7.868l.14.248s-.065.156-.193.434c-.035.083-.08.174-.128.279-.26.547-.673 1.368-1.215 2.328a27.525 27.525 0 0 1-4.213 5.723l-.128.13-25.42.23-.074-.087-4.93-5.804-2.453-2.885-.075-.092-.07.691-.238 2.303-.572 5.566-.031.278v.074l-.066.643.048-.643h-.127l-47.106.434-77.316.843V240h-.061v-.365l-19.701.209-.212.004z"/>
    <path fill="#FBBEBE" d="M237.1 163.688s-43.38 5.201-39.238 0c1.5-1.88 1.913-7.454 1.83-13.804a162.078 162.078 0 0 0-.196-5.916c-.48-9.535-1.634-18.854-1.634-18.854s37.93-17.77 33.57-3.684c-1.744 5.69-1.173 13.683.152 21.186.388 2.188.837 4.334 1.308 6.37a148.71 148.71 0 0 0 4.207 14.702z"/>
    <path fill="#000" d="M237.1 163.694s-43.38 5.189-39.238 0c1.5-1.877 1.913-7.437 1.83-13.772 6.614-2.802 15.029-.713 15.029-.713 8.859-1.751 14.54-1.41 18.171-.182a148.085 148.085 0 0 0 4.207 14.667z" opacity=".1"/>
    <path fill="#EDECE8" d="M153.575 240v-.365l77.53-.828 47.238-.434h.132l-.048.642.066-.642h.084v-.074l.605-5.837.23-2.209.07-.69.062-.577 2.728-8.944 2.728-8.93 2.296-7.52 3.505-11.492s-1.986-4.556-3.09-5.858c-1.104-1.302-2.207-10.198-2.207-10.198s-9.421-8.822-13.54-9.838c-1.726-.434-5.135-1.01-8.755-1.736-1.355-.269-2.745-.555-4.083-.867a91.951 91.951 0 0 1-2.208-.526 39.307 39.307 0 0 1-4.083-1.24 9.2 9.2 0 0 1-1.987-.994c-3.245-2.34-11.376-2.604-11.69-2.604v-.07a4.377 4.377 0 0 0 0-.546c0-.174 0-.378-.04-.608 0-.07 0-.143-.03-.217a5.87 5.87 0 0 0-.089-.495 2.139 2.139 0 0 0-.053-.23 7.386 7.386 0 0 0-.552-1.514c-.03-.07-.07-.143-.106-.213a7.906 7.906 0 0 0-.935-1.367 8.579 8.579 0 0 0-1.201-1.145c-.12-.091-.243-.187-.371-.274a2.062 2.062 0 0 0-.225-.156l-.393-.252-.367-.208a13.347 13.347 0 0 0-1.033-.503 6.93 6.93 0 0 0-.362-.148 46.299 46.299 0 0 0-.48-.182h-.027l-.331-.13a16.413 16.413 0 0 0-.777-.23l-.411-.104-.441-.1-.442-.091a19.884 19.884 0 0 0-1.408-.226l-.503-.06-.517-.053-.534-.043-.76-.044-.882-.03c-3.895 0-7.778.405-11.585 1.21a32.44 32.44 0 0 0-8.06-.728h-.385l-.441.026h-.283l-.57.052c-.19 0-.384.039-.573.065-.19.026-.389.048-.579.078l-.291.048c-.287.047-.578.1-.883.16a3.51 3.51 0 0 0-.291.065c-.384.083-.769.183-1.148.295-.19.053-.38.113-.57.178-.097.026-.19.061-.282.096l-.283.1-.278.108-.331.13c-.168.07-.331.144-.494.222-.093.039-.186.082-.274.13-.088.048-.181.087-.265.134a12.253 12.253 0 0 0-2.742 1.901l-.225.213-.22.221a5.37 5.37 0 0 0-.217.23c-.287.31-.556.635-.803.976-.07.092-.137.183-.203.278-.28.406-.534.83-.76 1.267-.057.104-.11.213-.163.317-.36.733-.656 1.495-.883 2.278-.082.29-.157.579-.225.868 0 0-9.346 4.053-17.098 6.987-2.062.781-4.004 1.488-5.629 2.022-.472.156-.914.3-1.324.434a11.96 11.96 0 0 1-2.76.625 8.83 8.83 0 0 0-1.324.121c-3.563.569-9.668 3.038-10.335 5.516-.054.198-.069.404-.044.608v.047c.442 3.038-2.649 2.604-2.649 2.604s-1.103 8.028-2.649 10.198c-1.116 1.562-1.88 5.047-1.977 7.677a8.37 8.37 0 0 0 .194 2.443v.06c.176.582-.247 2.17-.967 4.205-.781 2.235-1.92 5.013-3.015 7.634-1.651 3.957-3.205 7.55-3.302 8.34-.04.352-.155.981-.314 1.793-.644 3.306-2.075 9.603-2.781 12.15-.525 1.9-1.29 4.505-1.815 6.293 0 .052-.03.104-.044.151l19.791-.19V240h.062-.026z"/>
    <path fill="#000" d="M161.106 189s25.338 12.344 34.45 10.88L161.106 189zM212.781 184s24.276 7.83 32.368 8.917C253.24 194.005 212.78 184 212.78 184zM240.14 158.298c-12.884 2.229-37.14 1.749-47.623 1.41 3.842-12.94 22.58-8.54 22.58-8.54 23.194-4.35 24.971 4.675 25.042 7.13z" opacity=".1"/>
    <path fill="#EDECE8" d="M240.14 157.298c-12.884 2.229-37.14 1.749-47.623 1.41 3.842-12.94 22.58-8.54 22.58-8.54 23.194-4.35 24.971 4.675 25.042 7.13z"/>
    <path fill="#FBBEBE" d="M307.013 216.394s14.899-2.325 15.191 4.32c.292 6.644-7.598 11.286-7.598 11.286l-7.593-15.606z"/>
    <path fill="#000" d="M231.86 142.261c-.65.281-1.315.53-1.992.744-4.774 1.591-9.587 3.195-14.613 3.777-5.026.581-10.3.068-14.683-2.352-.46-.252-.904-.53-1.329-.834-.487-9.409-1.66-18.603-1.66-18.603s38.524-17.534 34.096-3.635c-1.763 5.615-1.165 13.5.181 20.903z" opacity=".1"/>
    <path fill="#3F3D56" d="M208.085 83.647a4.204 4.204 0 0 1-3.66-.76l.914 1.256a3.754 3.754 0 0 1-2.983-.978 14.65 14.65 0 0 0 .141 3.37 6.44 6.44 0 0 1-4.206-1.305 1.92 1.92 0 0 0 1.162 1.874c-3.147-.371-6.084 1.622-6.864 4.658l2.297.208a8.142 8.142 0 0 0-4.593 2.77c-.704.87-1.24 1.983-.933 3.044.308 1.061 1.795 1.74 2.605.983a12.048 12.048 0 0 0-2.684 9.91c.209.744.277 1.519.202 2.287-.145.718-.602 1.34-.831 2.04-.44 1.27-.022 2.648.37 3.913l2.063 6.706c.748 2.422 1.491 4.848 2.468 7.192a35.436 35.436 0 0 1 1.76 4.57c.554 2.105.576 4.41 1.76 6.249a8.737 8.737 0 0 0 3.158 2.752c4.352 2.462 9.61 2.983 14.59 2.392 4.98-.591 9.758-2.222 14.496-3.84a13.721 13.721 0 0 0 3.01-1.304c3.277-2.122 4.007-6.462 4.619-10.284.682-4.262 1.593-8.515 3.207-12.524.96-2.387 2.2-4.81 1.989-7.366-.269-3.396-2.987-6.149-3.66-9.488a8.168 8.168 0 0 1 .03-3.38c.209-.662.326-1.35.348-2.043-.075-1.4-1.237-2.478-2.328-3.379-2.367-1.953-4.81-3.8-7.33-5.54-.127-.87 1.07-1.243 1.61-1.93.766-.97-.025-2.51-1.187-2.961-1.161-.453-2.464-.157-3.674.143a2.86 2.86 0 0 0-1.703-2.982 2.922 2.922 0 0 0-3.378.76 4.484 4.484 0 0 0-3.705-2.644c-2.916-.226-2.974 1.979-4.84 3.192-1.865 1.213-3.404-.387-4.839-1.553a3.998 3.998 0 0 0 .599 3.992z"/>
    <path fill="#EDECE8" d="M318.159 229.75s-.39.912-1.106 2.233a29.663 29.663 0 0 1-3.935 5.664l-.118.125h-.709l-25.246.228h-.603l-.075-.086-4.897-5.716-1.845-2.155-.074-.09-.158-.181-.087-.104-.114-.133-3.59-4.19 1.312-5.376 2.235-9.058.056-.22.438-1.72.31-1.29 1.04-4.207L284.563 189l6.34 3.226 6.685 11.613 3.59 6.237h1.967c.372 0 1.224.706 2.081 1.519.307.288.613.593.875.86a56.314 56.314 0 0 1 1.395 1.47s3.187.07 4.044 2.539c.044.119.08.241.11.365.284.97.654 1.915 1.106 2.822.564 1.208 1.272 2.58 1.99 3.953a216.637 216.637 0 0 0 3.187 5.78l.06.108.167.258z"/>
    <path fill="#000" d="M280.657 210.098l-.044.626v.044l-.075 1.007-.586 8.108-.71 9.767-.202 2.75-.441 5.887v.075l-47.15.438-77.374.832V240h-.062v-.491l.199-6.29.379-12.29.326-10.42.03-1.038a4.6 4.6 0 0 1 1.552-3.303 4.658 4.658 0 0 1 3.48-1.151c2.08.175 4.782.39 8.012.617l1.322.097c18.653 1.287 53.125 2.952 87.91.876.731-.04 1.467-.084 2.203-.136 5.394-.337 10.783-.771 16.12-1.314a4.657 4.657 0 0 1 3.71 1.273c.987.95 1.5 2.284 1.4 3.646v.022z" opacity=".1"/>
    <path fill="#3F3D56" d="M154.013 239.983v-.366l77.42-.83 47.17-.434h.132v-.074l.44-5.842.19-2.609.723-9.828.569-7.78v-.192c.026-.358.01-.719-.049-1.073a.129.129 0 0 0 0-.044 4.484 4.484 0 0 0-.881-2.017 4.677 4.677 0 0 0-4.153-1.738c-5.339.539-10.73.969-16.126 1.304-.736.052-1.472.095-2.204.134-34.8 2.039-69.286.387-87.947-.87l-1.322-.095a531.407 531.407 0 0 1-8.015-.613c-2.37-.197-4.51 1.404-4.955 3.708a4.717 4.717 0 0 0-.08.713l-.299 9.633-.41 12.201-.194 6.242V240l-.009-.017z"/>
    <path fill="#000" d="M280.662 213.05l-.542 6.584-.806 9.814-.203 2.457-.44 5.502-.026.274v.073l-.066.636.048-.636h-.128l-47.125.43-77.36.816v-.12l.215-6.168.44-12.051.282-8.01a2.72 2.72 0 0 1 1.348-2.255 2.809 2.809 0 0 1 1.665-.387c.925.073 2.061.159 3.387.254 2.153.154 4.81.335 7.9.523 5.726.353 12.91.73 21.141 1.04 22.902.859 53.82 1.147 83.188-1.362 1.321-.111 2.686-.236 4.02-.36a2.817 2.817 0 0 1 1.534.283c.133.065.26.143.378.232.384.27.687.635.881 1.057.045.083.082.171.11.262.133.355.187.734.159 1.112zM131.722 219v1.343c0 .997-.614 1.905-1.579 2.333l-18.089.324c-.982-.42-1.611-1.337-1.61-2.345v-1.263l21.278-.392z" opacity=".1"/>
    <path fill="#3F3D56" d="M131.722 223.586l-23.305.414v-3.586l23.305-.414z"/>
    <path fill="#000" d="M131.722 223.586l-23.305.414v-3.586l23.305-.414z" opacity=".1"/>
    <path fill="#3F3D56" d="M132.735 223.586L109.43 224v-3.586l23.305-.414z"/>
    <g fill="#000" opacity=".1">
      <path d="M208.58 82.023a4.212 4.212 0 0 1-.834-1.888 4.074 4.074 0 0 0 .186 2.001c.219-.02.436-.058.648-.113zM202.976 84.912a15.072 15.072 0 0 1-.163-1.61v1.614l.163-.004zM238.938 99.43c.025-.388.078-.773.16-1.153a7.732 7.732 0 0 0 .352-2.04 2.645 2.645 0 0 0-.07-.462c-.075.4-.195.801-.283 1.197a8.213 8.213 0 0 0-.159 2.458zM229.76 85.986l.481.344c.406-.289.785-.612 1.134-.966.338-.46.402-1.064.168-1.583-.044.099-.1.193-.168.278-.542.688-1.743 1.066-1.615 1.927zM193.503 90.172c-.161.317-.29.65-.384.992a8.084 8.084 0 0 1 2.206-.823l-1.822-.17zM199.588 85.438a6.554 6.554 0 0 1-.83-.535c-.011.172.002.345.04.514.263-.013.527-.006.79.021zM242.729 111.072c-.181 2.11-1.178 4.142-1.986 6.143-1.62 4.012-2.533 8.267-3.217 12.535-.613 3.824-1.323 8.166-4.633 10.285-.945.557-1.958.995-3.014 1.305-4.756 1.623-9.553 3.25-14.56 3.841-5.009.592-10.264.074-14.633-2.388a8.787 8.787 0 0 1-3.168-2.754c-1.178-1.84-1.2-4.146-1.765-6.252a35.458 35.458 0 0 0-1.765-4.577c-.975-2.34-1.725-4.786-2.471-7.191-.691-2.237-1.381-4.474-2.07-6.713a12.388 12.388 0 0 1-.502-2.067c-.173 1.114.163 2.28.503 3.372.688 2.242 1.378 4.48 2.069 6.713.746 2.423 1.496 4.85 2.471 7.191a35.458 35.458 0 0 1 1.765 4.577c.556 2.106.578 4.412 1.765 6.252a8.787 8.787 0 0 0 3.168 2.754c4.369 2.463 9.637 2.98 14.632 2.389 4.995-.592 9.787-2.22 14.561-3.842a13.334 13.334 0 0 0 3.014-1.305c3.288-2.119 4.02-6.46 4.633-10.285.684-4.268 1.598-8.523 3.217-12.534.962-2.385 2.206-4.808 1.995-7.37 0-.026-.01-.053-.01-.079zM189.915 109.389v-.048c.08-.767.011-1.542-.203-2.284-.088-.478-.145-.96-.172-1.445-.05.92.007 1.843.172 2.75.07.34.15.683.203 1.027zM191.261 98.747c.34-.562.725-1.096 1.152-1.597-.808.762-2.3.083-2.612-.974a2.502 2.502 0 0 0 0 1.305c.22.65.778 1.133 1.46 1.266z"/>
    </g>
    <path fill="#000" d="M301.44 210s1.14 4.902 0 9.164c-1.14 4.263 0-9.164 0-9.164zM306.913 215s.454 6.703-.57 7.893c-1.024 1.189.57-7.893.57-7.893z" opacity=".1"/>
    <path stroke="#B0A89C" stroke-width="2" d="M88.152 149.217l44.583-.434M88.152 154.215l44.583-.43M88.152 159.217l44.583-.434"/>
  </g>
</svg>
