<svg xmlns="http://www.w3.org/2000/svg" width="540" height="369" viewBox="0 0 540 369">
  <g fill="none" fill-rule="evenodd">
    <path fill="#3F3D56" d="M204 351.5c0 9.663-44.995 17.5-100.5 17.5S3 361.163 3 351.5c0-2.417 2.808-4.716 7.89-6.806 14.793-6.097 48.855-10.43 88.89-10.68 1.236-.01 2.475-.014 3.72-.014 55.505 0 100.5 7.837 100.5 17.5z"/>
    <path fill="#000" d="M100 334c-9.135 14.751-24.582 24.551-41.93 26.601-17.347 2.05-34.688-3.876-47.07-16.084 14.811-6.004 48.915-10.27 89-10.517z" opacity=".1"/>
    <g>
      <ellipse cx="52.5" cy="295.5" fill="#3F3D56" rx="52.5" ry="56.5"/>
      <path fill="#3F3D56" d="M117 39c7.487 29.019 31.64 47.775 54 41.935"/>
      <path fill="#B0A89C" d="M171.018 81C163.56 52.053 177.417 23.428 202 17M132 38c7.173 27.19 24.617 46.22 39 42.546"/>
      <path fill="#3F3D56" d="M170.835 81C161.304 43.718 176.585 7.49 205 0"/>
      <path fill="#A8A8A8" d="M163 82.842s5.69-1.622 7.1-3.258c1.41-1.636 8.123-4.86 9.065-3.046.941 1.814 11.17 7.383 4.707 9.071-6.463 1.688-15.311 2.822-17.31 2.234-1.998-.587-3.562-5-3.562-5z"/>
      <path fill="#000" d="M183.81 85.037c-6.463 1.619-15.311 2.706-17.31 2.143-1.522-.43-2.791-2.985-3.31-4.18l-.19.053s1.564 4.233 3.563 4.797c1.998.563 10.847-.524 17.31-2.143 1.866-.467 2.339-1.245 2.048-2.157-.106.62-.722 1.14-2.11 1.487z" opacity=".2"/>
      <path fill="#F2F2F2" d="M161 59h379v220H161z"/>
      <path fill="#B0A89C" d="M170 126h208v109H170z" opacity=".3"/>
      <path fill="#3F3D56" d="M394 121h83v5h-83zM394 129h121v5H394zM394 150h83v5h-83zM394 184h83v5h-83zM394 159h121v5H394zM394 167h121v5H394zM394 176h121v5H394z"/>
      <path fill="#B0A89C" d="M394 205h44v12h-44z"/>
      <path fill="#A0616A" d="M148 191.53s7.934-22.123 13.663-15.182c5.73 6.94-8.815 18.652-8.815 18.652L148 191.53z"/>
      <path fill="#575A89" d="M110.54 170l4.674 1.761s2.232 10.088 1.369 11.843c-.864 1.755-1.295.439 0 3.95 1.295 3.51 5.18 12.726 5.611 14.042.432 1.317 25.036-8.338 25.036-13.165 0 0 5.18 6.144 7.77 7.46 0 0-28.49 21.064-32.374 23.697-3.885 2.633-6.043 1.317-9.497-1.755C109.676 214.76 95 189.309 95 189.309L110.54 170z"/>
      <path fill="#2F2E41" d="M24.872 216s-9.158 11.354 5.233 29.695l23.985 30.568s-14.827 23.581-15.263 35.808c-.436 12.228-3.489 9.608-4.361 14.848-.872 5.24-4.797 2.62-1.744 6.55 3.052 3.93 14.39 7.424 17.88 4.367 3.488-3.057 3.488-6.987 3.488-8.734 0-1.747 6.105-11.79 6.541-14.847.436-3.057 16.572-27.948 16.572-27.948s5.233-14.848-.872-23.145c-6.106-8.297-10.14-20.064-10.14-20.064s17.99 21.811 30.636 27.051c0 0 4.797.874 3.925 3.057-.872 2.184 0 3.494 1.308 5.677 1.308 2.184 10.466 27.511 13.519 34.062 3.053 6.55 1.744 10.48 5.233 12.664 3.489 2.183 19.188.436 19.188-1.747 0-2.183-2.18-7.86-3.489-10.917-1.308-3.057-11.774-38.429-10.902-44.542.872-6.114-.436-14.411-6.977-17.905-6.542-3.493-39.685-31.878-41.43-31.878-1.744 0-52.33-2.62-52.33-2.62z"/>
      <circle cx="112.5" cy="129.5" r="18.5" fill="#A0616A"/>
      <path fill="#A0616A" d="M98.009 132s-5.729 10.12-12.779 11.44c-7.05 1.32 18.507 21.56 18.507 21.56s6.17-19.36 11.457-20.24C120.482 143.88 98.01 132 98.01 132z"/>
      <path fill="#575A89" d="M116 172.857c0 5.637-16.988 21.683-16.988 21.683l-16.117 13.443s-.436 4.77-2.178 5.204c-1.742.434-3.92.434-2.178 3.036s6.098 8.24 2.178 9.107a32.161 32.161 0 0 1-3.568.338c-1.045.06-2.273.117-3.654.169-3.224.113-7.257.187-11.626.156a242.73 242.73 0 0 1-3.79-.043c-16.47-.325-35.549-2.212-33.99-8.426 2.614-10.408.872-13.877 6.535-19.515 5.662-5.637 14.81-25.152 14.81-25.152s18.295-30.79 33.54-30.79l3.167-.828a7.267 7.267 0 0 1 7.915 3.027c3.058 4.635 7.88 11.6 10.698 13.846 4.356 3.47 5.036.98 5.036.98S116 167.22 116 172.857z"/>
      <path fill="#A0616A" d="M76.524 239s12.836 19.24 4.87 22.66C73.425 265.08 69 241.565 69 241.565L76.524 239z"/>
      <path fill="#2F2E41" d="M100.257 127.523c.705-.089.928-.974 1.047-1.671.636-3.734 3.433-7.274 7.191-7.877a10.234 10.234 0 0 1 4.285.343 16.292 16.292 0 0 1 5.498 2.692c.868.653 1.703 1.411 2.747 1.716.69.202 3.618 1.497 4.302 1.716 1.504.481 2.749 2.047 4.298 1.737 1.482-.296 2.045-2.077 2.283-3.562.542-3.383-1.404-8.43-3.34-11.264-1.469-2.15-3.954-3.388-6.439-4.193a46.482 46.482 0 0 0-8.93-1.766c-4.088-.48-8.322-.735-12.24.522-3.917 1.257-7.484 4.332-8.215 8.36-.152.84-.18 1.7-.367 2.532-.456 2.031-1.807 3.738-2.595 5.665a10.856 10.856 0 0 0 .335 8.844c1.091 2.182 2.988 4.28 2.579 6.683l3.377-2.648a2.434 2.434 0 0 0 1.127-2.856l-.491-4.205c-.09-.77-.168-1.601.219-2.274 1.5-2.608 2.153 1.654 3.33 1.506z"/>
      <path fill="#000" d="M68.678 208.694l4.158 17.138a294.09 294.09 0 0 1-15.62.114c-1.484-4.41-2.9-9.01-3.987-13.315-3.972-15.751 2.649-39.816 6.18-51.192C62.939 150.063 71.767 147 71.767 147s4.414 1.313 10.152 5.25c5.738 3.938-13.241 56.444-13.241 56.444z" opacity=".1"/>
      <path fill="#000" d="M72.647 207.879l4.322 17.787c-1.057.061-2.3.118-3.696.17-3.26.113-7.34.188-11.76.157-1.59-4.671-3.127-9.6-4.286-14.189-3.965-15.702 2.644-39.691 6.168-51.032 3.525-11.34 11.235 1.09 11.235 1.09s-3.084-7.414 2.643-3.489C83 162.3 72.647 207.88 72.647 207.88z" opacity=".1"/>
      <path fill="#575A89" d="M73.767 147s-8.827 3.03-12.358 14.286c-3.531 11.255-10.152 35.065-6.18 50.65C59.202 227.518 67.59 247 67.59 247s8.385-6.06 11.475-4.762l-8.386-34.199s18.98-51.948 13.241-55.844C78.181 148.299 73.767 147 73.767 147z"/>
      <path fill="#3F3D56" d="M161 115h208v109H161z"/>
      <circle cx="268.5" cy="171.5" r="23.5" fill="#FFF"/>
      <path fill="#B0A89C" fill-rule="nonzero" d="M269 144c-15.464 0-28 12.536-28 28s12.536 28 28 28 28-12.536 28-28c-.045-15.445-12.555-27.955-28-28zm-5.748 42.929l-14.35-14.35 4.025-4.025 10.338 10.338 21.822-21.82 4.025 4.024-25.86 25.833z"/>
    </g>
    <path fill="#2F2E41" d="M122.832 323.825s-.439 4.842-1.316 5.282c-.877.44-7.453 11.443 0 13.644 7.454 2.2 11.838 1.32 13.592 2.2 1.754.88 32.444 2.641 32.883-2.2.438-4.842-14.907-5.722-14.907-5.722s-14.03-9.243-16.222-14.084c-2.193-4.841-14.03.88-14.03.88zM35.202 333s-10.38 17.552-7.785 19.693c2.595 2.14 27.87 9.94 31.576 10.274 4.758.428 8.218-3.425 4.325-5.565-3.893-2.14-12.111-11.13-12.111-14.128v-7.705L35.202 333z"/>
  </g>
</svg>
