<svg xmlns="http://www.w3.org/2000/svg" width="501" height="331" viewBox="0 0 501 331">
  <g fill="none" fill-rule="evenodd">
    <g transform="translate(34)">
      <path fill="#F2F2F2" d="M313.215 149.226l3.11-1.221c.298-.118.591-.244.902-.366-11.852-4.375-19.098-16.4-17.445-28.951 1.653-12.552 11.762-22.28 24.341-23.422l-2.166 10.947 8.223-10.82h.072c14.78 2.036 25.116 15.696 23.088 30.513-.068.511-.176 1.009-.27 1.51 2.53-2.003 4.905-4.215 6.683-6.785 3.61-5.22 4.833-11.653 6.079-19.53 2.468-15.598 4.693-31.368 6.697-47.13-12.71-3.844-20.747-16.38-18.954-29.567.112-.824.27-1.625.45-2.416.046-.2.091-.398.14-.593.195-.764.412-1.515.664-2.262.04-.122.095-.235.136-.353.225-.62.45-1.23.744-1.81.1-.225.199-.452.303-.664.311-.647.64-1.28 1.001-1.896.122-.203.253-.398.375-.601.28-.453.573-.905.876-1.326.162-.226.32-.452.487-.674l.122-.176c7.907-10.374 22.076-13.61 33.684-7.691l-2.816 14.246 8.124-10.695c8.968 7.617 11.952 20.195 7.365 31.043h.031c-.076.181-.171.353-.248.534-.149.335-.302.665-.451.995-.208.421-.451.833-.655 1.24-.171.307-.338.615-.523.905-.266.452-.555.86-.844 1.28-.171.244-.33.497-.505.737a22.56 22.56 0 0 1-1.472 1.81c-.18.203-.374.389-.564.588-.365.389-.73.773-1.119 1.14-.24.226-.492.452-.74.66-.357.317-.722.625-1.097.905-.266.213-.537.416-.808.615-.392.285-.79.552-1.191.82-.27.176-.542.352-.817.52-.451.275-.925.529-1.399.778-.239.122-.451.257-.717.375-.713.348-1.445.67-2.19.955-.14.054-.288.095-.428.144-.623.227-1.25.453-1.886.611-.276.077-.555.14-.835.208-.52.127-1.043.244-1.57.344-.302.054-.613.104-.935.15-.519.076-1.042.135-1.57.18-.312.027-.619.055-.935.073-.568.027-1.141.031-1.714.027a.936.936 0 0 0-.113 0c-.849 6.635-1.74 13.27-2.672 19.905a26.951 26.951 0 0 1 38.992-4.669l-7.076 12.025 11.377-7.505a27.047 27.047 0 0 1 5.19 19.977 26.632 26.632 0 0 1-2.031 7.211c-4.444 10.17-14.634 16.589-25.703 16.19-11.07-.4-20.773-7.535-24.477-18-.103.67-.203 1.358-.307 2.018-1.1 6.944-2.468 15.59-7.324 22.62-3.29 4.777-7.82 8.305-12.226 11.409a159.39 159.39 0 0 1-8.79 5.777 26.992 26.992 0 0 1-11.071 6.216 169.376 169.376 0 0 1-14.753 6.7l-3.136 1.23c-2.82 1.104-5.71 2.235-8.575 3.438.451.04.903.077 1.354.136 11.652 1.604 20.932 10.575 22.953 22.19l-19.094 10.454 19.035-.855a26.795 26.795 0 0 1-5.154 11.617c-8.95 11.615-25.5 13.97-37.322 5.312l.948 1.768c.632 1.168 1.255 2.33 1.86 3.484 8.272 15.716 8.872 29.287 1.692 38.222l-5.867-4.727c6.99-8.695 1.444-22.516-2.482-29.98-.596-1.131-1.21-2.262-1.805-3.42-5.312-9.876-11.337-21.068-8.922-32.98 3.61-17.96 23.038-25.56 38.666-31.667zM88.313 234.75l-2.434-.954c-.235-.09-.452-.194-.696-.285a21.153 21.153 0 0 0 13.648-22.615 21.15 21.15 0 0 0-19.05-18.297l1.697 8.552-6.433-8.452h-.058a21.151 21.151 0 0 0-13.985 8.168 21.161 21.161 0 0 0-4.11 15.668c.055.402.14.787.213 1.18a25.263 25.263 0 0 1-5.23-5.307c-2.817-4.072-3.785-9.103-4.762-15.252a1260.816 1260.816 0 0 1-5.212-36.8c9.947-3.007 16.232-12.8 14.824-23.098a21.371 21.371 0 0 0-.357-1.887l-.109-.452a21.885 21.885 0 0 0-.52-1.756c-.032-.095-.072-.185-.109-.276a21.83 21.83 0 0 0-.579-1.425c-.081-.172-.158-.348-.24-.52a21.84 21.84 0 0 0-.782-1.475 6.558 6.558 0 0 0-.294-.453 24.186 24.186 0 0 0-.688-1.036c-.126-.176-.248-.357-.38-.53l-.095-.135c-6.189-8.102-17.274-10.635-26.367-6.027l2.207 11.13-6.364-8.352a21.034 21.034 0 0 0-5.768 24.248h-.023c.06.14.132.276.195.416.118.263.235.52.362.778.163.326.335.647.515.964.132.245.263.484.408.72.208.339.452.67.66 1 .136.19.258.389.398.574.362.489.746.96 1.15 1.416.14.159.293.304.451.453.285.303.575.602.878.905.185.18.385.348.579.516a18.937 18.937 0 0 0 1.488 1.199c.308.221.62.452.932.638.213.14.425.276.642.407.358.217.724.412 1.095.606.19.1.371.204.561.299.561.271 1.131.52 1.715.742.108.045.226.072.334.113.484.176.977.34 1.48.48.212.058.452.108.65.158.408.1.815.194 1.231.271l.729.118c.407.059.818.104 1.23.14.244.023.484.041.733.055.452.022.904.027 1.357.022h.086c.663 5.194 1.36 10.384 2.09 15.57a21.128 21.128 0 0 0-30.525-3.684l5.491 9.34-8.902-5.86a21.075 21.075 0 0 0-4.071 15.605c.262 1.946.8 3.844 1.597 5.638a21.138 21.138 0 0 0 39.282-1.412c.082.52.158 1.05.24 1.575.86 5.43 1.931 12.18 5.731 17.682 2.579 3.729 6.125 6.484 9.572 8.91a128.715 128.715 0 0 0 6.88 4.524 21.205 21.205 0 0 0 8.667 4.86 128.6 128.6 0 0 0 11.554 5.23l2.451.964c2.208.86 4.47 1.742 6.7 2.683-.353.032-.71.059-1.068.108a21.159 21.159 0 0 0-17.967 17.316l14.927 8.145-14.9-.665a21.165 21.165 0 0 0 12.995 15.79 21.157 21.157 0 0 0 20.284-2.578c-.248.452-.493.904-.741 1.38-.493.904-.982 1.81-1.457 2.714-6.473 12.276-6.944 22.881-1.32 29.863l4.582-3.692c-5.474-6.787-1.131-17.587 1.945-23.42.452-.882.945-1.773 1.43-2.67 4.156-7.691 8.87-16.455 6.992-25.763-2.809-13.999-18.03-19.917-30.262-24.704z"/>
      <path fill="#53C1DE" d="M303.025 150.028h.014C333.386 160.478 353 176.841 353 193.764c0 17.648-20.961 34.902-53.172 45.572a164.47 164.47 0 0 1-5.226 1.633 147.292 147.292 0 0 1 1.686 7.51c6.357 32.12 1.46 58.526-13.61 67.248-14.585 8.45-38.178.149-62.06-20.401a185.523 185.523 0 0 1-7.591-6.927 179.871 179.871 0 0 1-5.878 5.403c-24.65 21.55-49.97 30.502-65.058 21.793-14.604-8.423-19.198-33.002-13.32-63.956a186.7 186.7 0 0 1 2.206-10.028 167.8 167.8 0 0 1-7.596-2.379C92.396 228.643 72 211.177 72 193.764c0-16.86 18.999-33.137 48.745-43.487a185.316 185.316 0 0 1 10.4-3.274 167.009 167.009 0 0 1-2.076-9.305c-6.172-31.5-1.827-56.672 12.818-65.15 15.292-8.84 40.706.652 66.076 23.182a179.069 179.069 0 0 1 4.657 4.3 193.443 193.443 0 0 1 6.994-6.42c24.217-21.066 48.19-29.883 62.848-21.428 15.287 8.813 19.763 35.589 12.917 68.826a184.69 184.69 0 0 1-1.397 6.172c3.039.874 6.053 1.823 9.043 2.848zm-6.972 77.915C323.867 218.73 341 204.621 341 193.771c0-10.199-15.862-23.431-41.867-32.378a174.716 174.716 0 0 0-8.352-2.636 281.633 281.633 0 0 1-13.678 35.073 280.974 280.974 0 0 1 14.23 35.592c1.61-.48 3.183-.968 4.72-1.479zm-11.54 22.866l.01-.036a156.8 156.8 0 0 0-1.524-6.78 280.5 280.5 0 0 1-38.06 5.876 282.21 282.21 0 0 1-23.554 29.9 173.68 173.68 0 0 0 7.068 6.443c20.425 17.572 39.362 24.23 48.22 19.109 4.16-2.41 7.524-8.422 9.197-17.441 1.854-10.032 1.456-22.87-1.356-37.07zm-116.715 53.635c9.627-3.413 20.556-10.158 31.458-19.688a145.017 145.017 0 0 0 5.353-4.932 291.643 291.643 0 0 1-24.123-29.792 283.028 283.028 0 0 1-37.87-5.484 186.301 186.301 0 0 0-2.049 9.326c-5.028 26.447-1.342 46.198 7.52 51.311 4.165 2.4 11.056 2.315 19.71-.741zm-40.534-76.568c2.291.78 4.604 1.503 6.937 2.17a292.133 292.133 0 0 1 13.864-35.986 287.97 287.97 0 0 1-13.697-35.479c-3.253.916-6.477 1.93-9.672 3.043C99.256 170.489 84 183.54 84 193.77c0 4.805 3.518 10.732 10.486 16.7 7.76 6.636 19.073 12.721 32.778 17.405zm13.588-92.468v.004c.567 2.903 1.21 5.788 1.931 8.658a293.262 293.262 0 0 1 37.5-5.828 287.483 287.483 0 0 1 23.933-29.62 156.474 156.474 0 0 0-4.214-3.888c-21.913-19.453-42.7-27.192-52.1-21.767-8.827 5.1-12.331 25.456-7.05 52.44zm121.234 29.923a410.6 410.6 0 0 1 8.085 14.62 255.631 255.631 0 0 0 8.994-24.19c-8.067-1.845-16.654-3.346-25.62-4.48a383.22 383.22 0 0 1 8.54 14.05zm-49.45-48.133v.005c-5.625 6.062-11.219 12.753-16.677 19.95a352.797 352.797 0 0 1 33.213 0 257.38 257.38 0 0 0-16.536-19.955zm-49.74 48.214h-.009a344.743 344.743 0 0 1 8.623-14.154c-8.908 1.116-17.459 2.567-25.476 4.376 2.442 7.87 5.431 16.021 8.926 24.308a356.645 356.645 0 0 1 7.936-14.53zm8.867 71.722h-.009a343.659 343.659 0 0 1-8.804-14.426 353.559 353.559 0 0 1-7.963-14.539c-3.572 8.468-6.628 16.795-9.11 24.801a255.37 255.37 0 0 0 25.886 4.164zm41.212 34.055h-.01a254.956 254.956 0 0 0 16.505-20.29c-5.58.254-11.233.38-16.961.38-5.58 0-11.06-.106-16.441-.32 5.535 7.328 11.21 14.109 16.907 20.23zm57.286-63.449a370.57 370.57 0 0 1-8.139 14.882 427.208 427.208 0 0 1-8.628 14.3 253.882 253.882 0 0 0 26.227-4.471 254.403 254.403 0 0 0-9.46-24.711zm-18.54 8.888l.015-.018a359.576 359.576 0 0 0 12.077-22.74 387.619 387.619 0 0 0-12.114-22.545 371.11 371.11 0 0 0-13.565-21.614 340.577 340.577 0 0 0-51.223-.004 335.856 335.856 0 0 0-13.624 21.7 342.263 342.263 0 0 0-11.951 22.649 330.985 330.985 0 0 0 11.987 22.64 343.04 343.04 0 0 0 13.742 21.776c8.193.534 16.663.805 25.444.805 8.781 0 17.395-.308 25.734-.904a395.695 395.695 0 0 0 13.479-21.745zm24.767-134.023c-8.836-5.095-28.225 2.03-48.971 20.081a181.424 181.424 0 0 0-6.462 5.927 282.631 282.631 0 0 1 23.753 29.638 287.527 287.527 0 0 1 37.572 5.936c.455-1.856.877-3.718 1.266-5.583 5.91-28.693 2.252-50.574-7.158-55.999z"/>
      <path fill="#53C1DE" d="M213 168a25 25 0 1 1 0 50 25 25 0 0 1 0-50"/>
      <path fill="#3F3D56" d="M219 9.5a7.5 7.5 0 1 1-7.5-7.5 7.464 7.464 0 0 1 7.5 7.5z"/>
      <path fill="#3F3D56" d="M205.019 11.092a7.84 7.84 0 0 1-.117-7.042c1.078-2.222 3.135-3.738 5.491-4.045-2.683-.099-5.192 1.39-6.495 3.854a7.819 7.819 0 0 0 .318 7.827c1.498 2.338 4.119 3.598 6.784 3.26-2.499-.097-4.767-1.559-5.981-3.854zM202 20h20v31h-20z"/>
      <path fill="#000" d="M202 20h20v31h-20z" opacity=".1"/>
      <path fill="#A0616A" d="M169.962 133s-2.103 6.035-7.085 6.858c-4.981.823-7.877 2.192-7.877 2.192l11.814 7.95 6.3-.823s.789-8.5 3.414-10.42c2.626-1.919-6.566-5.757-6.566-5.757zM257.038 133s2.103 6.035 7.085 6.858c4.981.823 7.877 2.192 7.877 2.192L260.186 150l-6.3-.823s-.789-8.5-3.414-10.42c-2.626-1.919 6.566-5.757 6.566-5.757z"/>
      <path fill="#3F3D56" d="M198.178 81s-3.23 1.621-4.306 4.864c0 0-5.905 1.89-9.157 7.019 0 0-4.042 4.322-4.578 6.48-.536 2.16-6.713 15.122-6.713 15.122s-6.195 20.254-9.424 22.413c0 0 10.233-2.16 12.118 8.102 0 0 2.42 0 5.114-9.45 2.693-9.451 9.156-21.065 9.156-21.065s2.153-8.098 4.038-9.45c1.885-1.354 4.846-7.561 7.54-5.922 2.693 1.64 20.465-.273 20.465-.273s10.492 4.846 10.755 8.084c.264 3.239 2.153 3.512 2.421 6.213.268 2.7 10.233 24.03 10.233 24.03s1.885 5.92 2.425 7.286c0 0 5.905-14.31 13.735-6.207 0 0-.273-5.402-2.693-8.654-2.421-3.252-12.927-28.62-12.927-28.62s-1.076-3.78-2.152-4.86c-1.077-1.08-9.43-9.724-12.39-9.724 0 0-1.613-4.049-3.498-4.591L198.178 81zM174.984 147.134c-4.284 1.684-9.156 1.043-12.834-1.687a25.773 25.773 0 0 0-5.726-3.25c-2.86-1.131-6.28-1.969-7.322-.076C147.215 145.554 172.02 154 172.02 154s3.238-1.848 2.965-6.866zM253.016 147.134c4.284 1.684 9.156 1.043 12.834-1.687a25.773 25.773 0 0 1 5.726-3.25c2.86-1.131 6.28-1.969 7.322-.076C280.785 145.554 255.98 154 255.98 154s-3.238-1.848-2.965-6.866z"/>
      <path fill="#A0616A" d="M207.486 36.956c-.099.947-.405 1.973-1.197 2.474-.648.414-1.467.381-2.214.538a5.192 5.192 0 0 0-3.52 3.113 8.215 8.215 0 0 0-.337 4.85c.177.79.405 1.568.684 2.327.783 2.262 1.728 4.506 3.191 6.387a26.798 26.798 0 0 0 4.185 4.032c.95.791 1.931 1.596 3.101 1.968.793.214 1.61.325 2.43.331 1.013.046 2.093.078 2.97-.437 1.35-.795 1.751-2.551 2.485-3.963.62-1.196 1.548-2.212 2.128-3.43.413-.96.715-1.967.9-2.998l1.247-5.656c.45-2.055.864-4.372-.265-6.133a1.039 1.039 0 0 0-.333-.354 1.23 1.23 0 0 0-.685-.07 7.271 7.271 0 0 1-4.117-.96 1.775 1.775 0 0 1-.518-.414 2.203 2.203 0 0 1-.315-.975c-.122-.7-.315-1.386-.576-2.046a1.383 1.383 0 0 0-.392-.616 1.397 1.397 0 0 0-.634-.216 50.46 50.46 0 0 0-5.819-.621c-.64-.032-1.602-.294-2.043.285-.441.58-.302 1.894-.356 2.584z"/>
      <path fill="#000" d="M207.486 36.956c-.099.947-.405 1.973-1.197 2.474-.648.414-1.467.381-2.214.538a5.192 5.192 0 0 0-3.52 3.113 8.215 8.215 0 0 0-.337 4.85c.177.79.405 1.568.684 2.327.783 2.262 1.728 4.506 3.191 6.387a26.798 26.798 0 0 0 4.185 4.032c.95.791 1.931 1.596 3.101 1.968.793.214 1.61.325 2.43.331 1.013.046 2.093.078 2.97-.437 1.35-.795 1.751-2.551 2.485-3.963.62-1.196 1.548-2.212 2.128-3.43.413-.96.715-1.967.9-2.998l1.247-5.656c.45-2.055.864-4.372-.265-6.133a1.039 1.039 0 0 0-.333-.354 1.23 1.23 0 0 0-.685-.07 7.271 7.271 0 0 1-4.117-.96 1.775 1.775 0 0 1-.518-.414 2.203 2.203 0 0 1-.315-.975c-.122-.7-.315-1.386-.576-2.046a1.383 1.383 0 0 0-.392-.616 1.397 1.397 0 0 0-.634-.216 50.46 50.46 0 0 0-5.819-.621c-.64-.032-1.602-.294-2.043.285-.441.58-.302 1.894-.356 2.584z" opacity=".1"/>
      <path fill="#B0A89C" d="M203.342 40.153a12.365 12.365 0 0 0-3.254-.508c-2.611-.063-5.405.83-6.911 2.949a6.922 6.922 0 0 0-1.046 5.202 10.663 10.663 0 0 0 2.374 4.835c.69.728 1.301 1.524 1.826 2.377.721 1.36.744 2.989.94 4.535.457 3.683 2.036 7.144 2.661 10.804.626 3.66.087 7.901-2.82 10.228-.489.39-1.082.803-1.123 1.424-.064.993 1.237 1.415 2.236 1.51 2.99.282 6.058.558 8.96-.208 1.201-.318 2.36-.812 3.584-1.039 3.104-.576 6.226.608 9.334 1.175 2.25.369 4.526.552 6.806.549a3.646 3.646 0 0 0 1.566-.204c.509-.199.83-.701.794-1.243a2.156 2.156 0 0 0-.538-.907c-1.57-1.928-2.05-4.49-2.479-6.935l-1.438-8.214c-.771-4.39-1.488-9.162.603-13.104 1.501-2.834 4.272-4.83 5.856-7.62a4.441 4.441 0 0 0 .708-2.848c-.238-1.401-1.511-2.404-2.817-2.989a10.657 10.657 0 0 0-7.951-.29c.045 1.964-.457 3.95-.78 5.896l-.553 3.175a40.07 40.07 0 0 1-1.237 5.534 5.813 5.813 0 0 1-.99 2.004 5.216 5.216 0 0 1-1.749 1.266c-1.44.7-3.025 1.06-4.629 1.052a6.217 6.217 0 0 1-2.044-.313 8.673 8.673 0 0 1-2.817-1.968 4.597 4.597 0 0 1-.744-.803 4.488 4.488 0 0 1-.507-1.211c-.37-1.11-.66-2.243-.871-3.393-.137-.88-.183-1.773-.247-2.662-.178-2.626-.178-5.53-.703-8.056z"/>
      <path fill="#A0616A" d="M201.064 92s-1.085 14.298 5.696 16.723c6.78 2.425.814-11.869.814-11.869l-2.173-4.313-4.337-.541zM223.936 92s1.085 14.298-5.696 16.723c-6.78 2.425-.814-11.869-.814-11.869l2.173-4.313 4.337-.541z"/>
      <path fill="#000" d="M195.146 44.816L193 48.278s1.88 11.98 2.146 14.109c.232 1.536.592 3.05 1.078 4.526 0 0 .267 6.39.267 8.788 0 2.398 1.358 6.39 1.358 6.39.19 2.264.646 4.497 1.359 6.655 1.073 2.928 2.146 6.39 2.146 6.39s1.358-3.727 6.71 1.864a3.205 3.205 0 0 0 0-4.526s-1.607-7.185-1.607-10.917-2.957-21.554-2.957-21.554-1.92-20.262-8.354-15.187z" opacity=".1"/>
      <path fill="#B0A89C" d="M194.145 44.812L192 48.275s1.878 11.982 2.145 14.111c.233 1.537.595 3.051 1.082 4.527 0 0 .267 6.391.267 8.785s1.358 6.391 1.358 6.391a28.787 28.787 0 0 0 1.358 6.656c1.072 2.933 2.15 6.391 2.15 6.391s1.357-3.728 6.707 1.864a3.207 3.207 0 0 0 0-4.523s-1.611-7.186-1.611-10.918c0-3.732-2.951-21.558-2.951-21.558s-1.92-20.25-8.36-15.189z"/>
      <path fill="#000" d="M230.268 43.513l1.372 1.582s1.596 9.048-1.93 20.48l-1.084 10.366s-1.898 8.775-2.167 10.9c-.27 2.125-.27 2.39-.814 3.187-.342.386-.342.96 0 1.345l-1.628 5.829s-2.438-2.923-7.317.798c0 0-1.372-2.125-.274-3.986 1.097-1.86 1.083-2.658.814-3.192-.27-.534 1.083-3.188 1.083-3.721 0-.534 1.912-12.751 1.912-12.751s.814-11.962 1.628-15.948c.498-2.452.49-7.918.402-11.764-.087-4.009 4.861-6.179 7.774-3.363.069.072.151.14.229.238z" opacity=".1"/>
      <path fill="#B0A89C" d="M231.267 42.1l1.372 1.595s1.597 9.117-1.93 20.628l-1.085 10.44s-1.9 8.838-2.17 10.979c-.27 2.14-.274 2.411-.814 3.215a1.02 1.02 0 0 0 0 1.355l-1.62 5.889s-2.439-2.95-7.321.799c0 0-1.373-2.14-.27-4.015 1.103-1.874 1.084-2.678.814-3.21-.27-.533 1.085-3.216 1.085-3.749 0-.532 1.899-12.852 1.899-12.852s.814-12.048 1.629-16.067c.814-4.02.27-16.063.27-16.063s4.343-2.944 8.14 1.057z"/>
      <circle cx="212.5" cy="27.5" r="10.5" fill="#A0616A"/>
      <path fill="#000" d="M218 11.648c-1.051 3.17-3.814 5.304-6.931 5.351-3.118.048-5.935-2-7.069-5.137 4.17-1.815 8.43-.2 8.43-.2 2.13-.807 3.976-.734 5.57-.014z" opacity=".1"/>
      <path fill="#3F3D56" d="M213.341 12.612s-20.624-7.188-15.533 27.702c0 0 4.555 2.93 8.034 1.065 0 0-2.409-24.238 6.966-23.173 9.375 1.064 7.767 22.643 7.767 22.643s5.358 1.595 6.967-1.348c1.608-2.943-.538-31.665-14.2-26.889z"/>
      <path fill="#000" d="M212.184 16.034c-6.389-.73-7.268 10.474-7.178 17.576.076-7.062 1.26-16.653 7.178-15.974 6.644.76 7.734 12 7.81 18.364.077-5.842-.56-19.133-7.81-19.966zM196.816 38.586a75.465 75.465 0 0 1-.815-9.586c-.022 3.765.25 7.527.815 11.248 0 0 4.64 3.044 8.184 1.107 0 0-.055-.598-.12-1.602-3.53 1.807-8.064-1.167-8.064-1.167zM226.566 37.83c-1.414 2.577-5.889 1.445-6.494 1.272-.03.932-.072 1.491-.072 1.491s5.05 1.504 6.566-1.271c.311-.568.473-2.174.426-4.322-.043 1.377-.192 2.407-.426 2.83z" opacity=".1"/>
      <path fill="#F2F2F2" d="M111.812 19.327l-8.28 5.278 5.027-9.193a8.138 8.138 0 0 0-4.99-1.797h-.136a9.736 9.736 0 0 1-1.715-.128l-2.808 1.788 1.202-2.199a10.014 10.014 0 0 1-4.909-3.745l-5.022 3.193 3.176-5.803C90.417 3.176 86.461 1 82.102 1 76.88 1 72.23 4.125 69.226 8.993a9.623 9.623 0 0 1-8.51 4.617h-.282C54.668 13.61 50 20.184 50 28.296s4.673 14.681 10.434 14.681a7.768 7.768 0 0 0 3.63-.912c3.76-1.967 8.696-2.003 12.634-.247a13.09 13.09 0 0 0 10.743.023c3.91-1.72 8.788-1.683 12.526.247a7.782 7.782 0 0 0 3.598.912c5.766 0 10.434-6.574 10.434-14.681a18.726 18.726 0 0 0-2.187-8.992z"/>
      <path fill="#000" d="M96 40.866a15.087 15.087 0 0 0-8.903.984 12.871 12.871 0 0 1-10.686-.023c-3.923-1.771-8.835-1.734-12.578.248a7.65 7.65 0 0 1-3.612.92c-5.097 0-9.336-5.234-10.221-12.134a9.857 9.857 0 0 0 2.546-2.797C55.553 23.16 60.163 20 65.36 20c5.196 0 9.77 3.114 12.758 7.967 1.814 2.982 5.027 4.781 8.47 4.743h.117c4.063.004 7.585 3.321 9.296 8.156z" opacity=".03"/>
      <path fill="#F2F2F2" d="M327.887 30.181l-4.121 2.647 2.512-4.586a4.066 4.066 0 0 0-2.503-.918h-.064a4.858 4.858 0 0 1-.858-.064l-1.404.917.59-1.128a5.003 5.003 0 0 1-2.453-1.876l-2.508 1.606 1.585-2.908a7.324 7.324 0 0 0-5.62-2.871c-2.612 0-4.934 1.568-6.433 4.008a4.791 4.791 0 0 1-4.253 2.293h-.141c-2.88 0-5.216 3.298-5.216 7.338S299.335 42 302.216 42a3.887 3.887 0 0 0 1.817-.459 7.46 7.46 0 0 1 6.311-.123 6.541 6.541 0 0 0 5.366 0 7.47 7.47 0 0 1 6.257.123c.56.3 1.183.457 1.817.459 2.88 0 5.216-3.293 5.216-7.36a9.37 9.37 0 0 0-1.113-4.459z"/>
      <path fill="#000" d="M320 40.965a7.856 7.856 0 0 0-4.447.474c-1.7.74-3.642.74-5.343 0a7.66 7.66 0 0 0-6.288.119 3.94 3.94 0 0 1-1.81.442c-2.551 0-4.669-2.507-5.112-5.814.507-.36.94-.81 1.276-1.326 1.493-2.352 3.809-3.86 6.406-3.86 2.597 0 4.881 1.49 6.374 3.816.906 1.43 2.513 2.293 4.235 2.272h.067c2.032-.03 3.773 1.56 4.642 3.877z" opacity=".03"/>
      <path fill="#F2F2F2" d="M58.746 97.382l6.612 4.156-4.005-7.233a6.559 6.559 0 0 1 3.991-1.411h.104c.453.006.906-.027 1.353-.099l2.232 1.407-.97-1.73a8.013 8.013 0 0 0 3.91-2.946l4.001 2.517-2.498-4.564C75.816 84.693 78.969 83 82.437 83c4.163 0 7.866 2.454 10.26 6.27a7.68 7.68 0 0 0 6.766 3.633h.225c4.591 0 8.312 5.168 8.312 11.546 0 6.378-3.72 11.551-8.312 11.551a6.286 6.286 0 0 1-2.9-.721 12.068 12.068 0 0 0-10.062-.193 10.566 10.566 0 0 1-8.569 0 12.09 12.09 0 0 0-9.976.193 6.304 6.304 0 0 1-2.864.703c-4.596 0-8.316-5.168-8.316-11.55a14.6 14.6 0 0 1 1.745-7.05z"/>
      <path fill="#000" d="M71 114.308a12.473 12.473 0 0 1 7.157.774 10.612 10.612 0 0 0 8.607 0 12.13 12.13 0 0 1 10.11.194c.897.472 1.895.72 2.909.724 4.1 0 7.506-4.098 8.217-9.506a7.867 7.867 0 0 1-2.048-2.196C103.547 100.456 99.828 98 95.647 98s-7.85 2.438-10.256 6.244a7.913 7.913 0 0 1-6.794 3.712h-.105c-3.288-.031-6.115 2.569-7.492 6.352z" opacity=".03"/>
    </g>
    <ellipse cx="250.5" cy="320.5" fill="#3F3D56" rx="250.5" ry="10.5"/>
    <ellipse cx="250.5" cy="320.5" fill="#000" opacity=".1" rx="250.5" ry="10.5"/>
    <ellipse cx="250.5" cy="314.5" fill="#3F3D56" rx="250.5" ry="10.5"/>
    <path stroke="#3F3D56" stroke-width="4" d="M38.118 310c-1.38-2.498.184-5.558 1.968-7.788 1.784-2.231 3.96-4.534 3.913-7.386-.064-4.08-4.46-6.487-7.969-8.65a38.892 38.892 0 0 1-7.155-5.67 10.44 10.44 0 0 1-2.198-2.902c-.727-1.596-.704-3.41-.658-5.16.154-5.82.445-11.635.874-17.444"/>
    <path fill="#B0A89C" d="M21.007 255.21a6.5 6.5 0 0 1 3.25-5.334l1.457 2.883-.041-3.492a6.435 6.435 0 0 1 2.145-.26 6.5 6.5 0 1 1-6.811 6.203zM31.718 298.449a6.497 6.497 0 0 0 7.171 3.403c2.892-.624 4.992-3.115 5.103-6.054a6.324 6.324 0 0 0-.422-2.619A6.483 6.483 0 0 0 37.462 289a6.482 6.482 0 0 0-6.059 4.248l4.062 3.282L31 295.499a6.36 6.36 0 0 0 .718 2.95zM35.108 285.981c3.319.254 6.277-2.102 6.809-5.423s-1.54-6.501-4.768-7.32l.033 2.68-1.456-2.91c-3.545-.168-6.553 2.602-6.719 6.185-.165 3.584 2.574 6.626 6.12 6.793l-.019-.005zM20.2 275.993a6.493 6.493 0 0 0 5.77-2.981 6.504 6.504 0 0 0 .307-6.493 6.494 6.494 0 0 0-8.95-2.686l1.149 3.154-2.368-2.272a6.494 6.494 0 0 0-2.1 4.493c-.03.6.025 1.202.167 1.786a6.489 6.489 0 0 0 6.024 4.999z"/>
    <path fill="#000" d="M21.691 257.235c1.408.161 2.777.615 4.19.705 1.412.09 2.964-.26 3.859-1.392.482-.616.721-1.388 1.126-2.053A4.443 4.443 0 0 1 32.404 253a6.457 6.457 0 0 1-.723 6.622c-1.446 1.882-3.805 2.748-6.077 2.23-2.272-.518-4.06-2.33-4.604-4.667.23.01.46.027.691.05zM20.092 275.992c2.312.112 4.516-.948 5.802-2.792a6.065 6.065 0 0 0 .468-6.2c-.524.338-.974.77-1.325 1.272-.47.68-.756 1.462-1.306 2.086-1.028 1.156-2.78 1.534-4.372 1.462-1.592-.072-3.128-.5-4.697-.639-.22 0-.441-.036-.662-.04.67 2.738 3.157 4.718 6.092 4.85zM35.568 285.992c2.132.114 4.167-.938 5.37-2.774a6.595 6.595 0 0 0 .517-6.218c-.51.345-.954.785-1.312 1.297-.476.7-.773 1.506-1.31 2.152-1.032 1.202-2.771 1.625-4.34 1.584-1.57-.041-2.98-.423-4.493-.542.756 2.575 2.985 4.376 5.568 4.5zM32 298.377c1.298 2.68 4.181 4.11 7.007 3.472 2.825-.637 4.876-3.179 4.985-6.177A6.711 6.711 0 0 0 43.58 293a6.419 6.419 0 0 0-1.394 1.287c-.606.765-1 1.63-1.701 2.348-1.299 1.324-3.394 1.878-5.259 1.92a27.2 27.2 0 0 1-3.226-.178z" opacity=".1"/>
    <path fill="#656380" d="M48 307.575s-5.107-.146-6.642-1.17c-1.534-1.023-7.835-2.244-8.236-.601-.401 1.642-7.674 8.17-1.908 8.195 5.766.026 13.394-.86 14.929-1.72 1.534-.86 1.857-4.704 1.857-4.704z"/>
    <path fill="#000" d="M31.091 313.369c5.772.047 13.407-.933 14.948-1.866 1.167-.719 1.633-3.309 1.79-4.503H48s-.323 4.167-1.845 5.133c-1.523.965-9.177 1.903-14.944 1.866-1.665 0-2.242-.611-2.21-1.503.217.528.854.873 2.09.873z" opacity=".2"/>
    <path stroke="#3F3D56" stroke-width="4" d="M477.118 314c-1.38-2.498.184-5.558 1.968-7.788 1.784-2.231 3.96-4.534 3.913-7.386-.064-4.08-4.46-6.487-7.969-8.65a38.892 38.892 0 0 1-7.155-5.67 10.44 10.44 0 0 1-2.198-2.902c-.727-1.596-.704-3.41-.658-5.16a360.3 360.3 0 0 1 .874-17.444"/>
    <path fill="#B0A89C" d="M459.011 259.21a6.5 6.5 0 0 1 3.25-5.334l1.458 2.883-.042-3.492a6.435 6.435 0 0 1 2.145-.26 6.5 6.5 0 1 1-6.815 6.203h.004zM470.718 302.449a6.497 6.497 0 0 0 7.171 3.403c2.892-.624 4.992-3.115 5.103-6.054a6.324 6.324 0 0 0-.422-2.619 6.483 6.483 0 0 0-6.108-4.179 6.482 6.482 0 0 0-6.059 4.248l4.062 3.282-4.465-1.031a6.36 6.36 0 0 0 .718 2.95zM474.108 289.981c3.319.254 6.277-2.102 6.809-5.423s-1.54-6.501-4.768-7.32l.033 2.68-1.456-2.91c-3.545-.168-6.553 2.602-6.719 6.185-.165 3.584 2.574 6.626 6.12 6.793l-.019-.005zM458.2 279.993a6.497 6.497 0 0 0 6.793-6.187 6.498 6.498 0 0 0-6.182-6.798 6.428 6.428 0 0 0-3.485.825l1.15 3.154-2.368-2.272a6.494 6.494 0 0 0-2.1 4.493c-.03.6.025 1.202.167 1.786a6.489 6.489 0 0 0 6.024 4.999z"/>
    <path fill="#000" d="M460.691 261.235c1.408.161 2.777.615 4.19.705 1.412.09 2.964-.26 3.859-1.392.482-.616.721-1.388 1.126-2.053a4.443 4.443 0 0 1 1.538-1.495 6.457 6.457 0 0 1-.723 6.622c-1.446 1.882-3.805 2.748-6.077 2.23-2.272-.518-4.06-2.33-4.604-4.667.23.01.46.027.691.05zM458.092 279.992c2.312.112 4.516-.948 5.802-2.792a6.065 6.065 0 0 0 .468-6.2c-.524.338-.974.77-1.325 1.272-.47.68-.756 1.462-1.306 2.086-1.028 1.156-2.78 1.534-4.372 1.462-1.592-.072-3.128-.5-4.697-.639-.22 0-.441-.036-.662-.04.67 2.738 3.157 4.718 6.092 4.85zM473.568 289.992c2.132.114 4.167-.938 5.37-2.774a6.595 6.595 0 0 0 .517-6.218c-.51.345-.954.785-1.312 1.297-.476.7-.773 1.506-1.31 2.152-1.032 1.202-2.771 1.625-4.34 1.584-1.57-.041-2.98-.423-4.493-.542.756 2.575 2.985 4.376 5.568 4.5zM471 302.377c1.298 2.68 4.181 4.11 7.007 3.472 2.825-.637 4.876-3.179 4.985-6.177a6.711 6.711 0 0 0-.412-2.672 6.419 6.419 0 0 0-1.394 1.287c-.606.765-1 1.63-1.701 2.348-1.299 1.324-3.394 1.878-5.259 1.92a27.2 27.2 0 0 1-3.226-.178z" opacity=".1"/>
    <path fill="#656380" d="M487 311.575s-5.107-.146-6.642-1.17c-1.534-1.023-7.835-2.244-8.236-.601-.401 1.642-7.674 8.17-1.908 8.195 5.766.026 13.394-.86 14.929-1.72 1.534-.86 1.857-4.704 1.857-4.704z"/>
    <path fill="#000" d="M470.091 317.369c5.772.047 13.407-.933 14.948-1.866 1.167-.719 1.633-3.309 1.79-4.503H487s-.323 4.167-1.845 5.133c-1.523.965-9.177 1.903-14.944 1.866-1.665 0-2.242-.611-2.21-1.503.217.528.854.873 2.09.873z" opacity=".2"/>
    <path stroke="#3F3D56" stroke-width="4" d="M374.152 304c2.127-3.95-.287-8.79-3.06-12.313-2.774-3.522-6.163-7.198-6.09-11.696.102-6.456 6.933-10.262 12.395-13.685a60.511 60.511 0 0 0 11.126-8.966c1.346-1.372 2.634-2.839 3.42-4.593 1.13-2.52 1.1-5.399 1.027-8.152A597.995 597.995 0 0 0 391.624 217"/>
    <path fill="#B0A89C" d="M401.994 216.54a9.972 9.972 0 0 0-4.99-8.19l-2.234 4.425.067-5.364a10 10 0 1 0 7.152 9.124l.005.004zM383.904 284.572a10.008 10.008 0 0 1-11.542 5.071 10 10 0 0 1-7.344-10.242 10.002 10.002 0 0 1 8.516-9.292 10.006 10.006 0 0 1 10.853 6.414l-6.265 5.085L385 280.01a9.945 9.945 0 0 1-1.096 4.561zM378.41 264.978c-5.057.214-9.473-3.394-10.281-8.399-.808-5.005 2.25-9.823 7.115-11.216l-.053 4.124 2.259-4.472h.026a9.98 9.98 0 0 1 8.93 4.568 10.02 10.02 0 0 1 .469 10.034 9.984 9.984 0 0 1-8.466 5.383v-.022zM403.48 248.989a10.013 10.013 0 0 1-9.748-6.238 9.992 9.992 0 0 1 2.662-11.254 10.022 10.022 0 0 1 11.513-1.22l-1.79 4.84 3.639-3.486a9.992 9.992 0 0 1 2.645 10.776 10.01 10.01 0 0 1-8.943 6.582h.023z"/>
    <path fill="#000" d="M400.856 218.957c-2.337.263-4.606 1.006-6.948 1.154-2.342.147-4.914-.425-6.392-2.307-.8-1.001-1.198-2.265-1.872-3.359A7.296 7.296 0 0 0 383.1 212c-1.78 3.572-1.373 7.872 1.043 11.031 2.417 3.158 6.407 4.604 10.234 3.707 3.827-.897 6.8-3.973 7.624-7.891-.384.041-.764.069-1.144.11zM403.604 248.99c-3.551.157-6.928-1.497-8.9-4.36a9.55 9.55 0 0 1-.737-9.63 7.299 7.299 0 0 1 2.038 1.977c.72 1.052 1.16 2.271 2.006 3.24 1.576 1.793 4.275 2.38 6.72 2.275 2.445-.105 4.8-.78 7.246-1 .34-.025.679-.047 1.023-.056-1.036 4.268-4.872 7.352-9.396 7.554zM378.703 264.99c-3.548.16-6.927-1.48-8.927-4.331a9.7 9.7 0 0 1-.883-9.659 8.053 8.053 0 0 1 2.162 2.021c.796 1.089 1.29 2.341 2.222 3.35 1.723 1.866 4.621 2.523 7.236 2.461 2.532-.053 4.968-.658 7.487-.844-1.269 4.006-4.989 6.808-9.297 7.001zM384 284.37c-2.416 4.887-8.173 6.971-13.069 4.731-4.895-2.24-7.198-8.01-5.227-13.101a10.06 10.06 0 0 1 2.203 2.004c.955 1.186 1.584 2.531 2.692 3.634 2.05 2.055 5.361 2.902 8.309 2.98 1.7.018 3.4-.064 5.092-.248z" opacity=".1"/>
    <path fill="#656380" d="M358 299.29s8.057-.244 10.5-1.948c2.441-1.705 12.397-3.737 13-1.008.602 2.73 12.11 13.591 3.013 13.663-9.098.072-21.14-1.394-23.564-2.85-2.424-1.458-2.949-7.858-2.949-7.858z"/>
    <path fill="#000" d="M384.673 310.032c-9.103.074-21.151-1.436-23.576-2.928-1.827-1.141-2.58-5.22-2.828-7.104H358s.512 6.577 2.937 8.07c2.425 1.49 14.474 3.001 23.576 2.927 2.626 0 3.535-.965 3.485-2.364-.365.836-1.366 1.362-3.325 1.4z" opacity=".2"/>
  </g>
</svg>
